<mxfile host="Electron" agent="Mozilla/5.0 (Macintosh; Intel Mac OS X 10_15_7) AppleWebKit/537.36 (KHTML, like Gecko) draw.io/27.0.9 Chrome/134.0.6998.205 Electron/35.4.0 Safari/537.36" version="27.0.9">
  <diagram name="Page-1" id="BIT76RC_quAsg-jpFB7F">
    <mxGraphModel dx="238" dy="80" grid="1" gridSize="10" guides="1" tooltips="1" connect="1" arrows="1" fold="1" page="0" pageScale="1" pageWidth="827" pageHeight="1169" math="0" shadow="0">
      <root>
        <mxCell id="0" />
        <mxCell id="1" parent="0" />
        <mxCell id="XSCT2WYPgkQ0aujzjNFR-60" value="" style="rounded=1;whiteSpace=wrap;html=1;sketch=0;fontFamily=Roboto;fontSource=https%3A%2F%2Ffonts.googleapis.com%2Fcss%3Ffamily%3DRoboto;fontSize=20;align=center;strokeWidth=4;glass=0;arcSize=6;strokeColor=none;fillColor=#EBEBE9;" vertex="1" parent="1">
          <mxGeometry x="500" y="890" width="640" height="850" as="geometry" />
        </mxCell>
        <mxCell id="XSCT2WYPgkQ0aujzjNFR-61" value="" style="rounded=1;whiteSpace=wrap;html=1;sketch=0;fontFamily=Roboto;fontSource=https%3A%2F%2Ffonts.googleapis.com%2Fcss%3Ffamily%3DRoboto;fontSize=20;align=center;dashed=1;strokeWidth=4;glass=0;arcSize=15;strokeColor=#ADADAC;fillColor=#D6D6D6;perimeterSpacing=0;" vertex="1" parent="1">
          <mxGeometry x="510" y="1230" width="620" height="260" as="geometry" />
        </mxCell>
        <mxCell id="XSCT2WYPgkQ0aujzjNFR-40" value="" style="group;fontFamily=Roboto;fontSource=https%3A%2F%2Ffonts.googleapis.com%2Fcss%3Ffamily%3DRoboto;" vertex="1" connectable="0" parent="1">
          <mxGeometry x="920" y="1400" width="200" height="80" as="geometry" />
        </mxCell>
        <mxCell id="XSCT2WYPgkQ0aujzjNFR-41" value="" style="rounded=1;whiteSpace=wrap;html=1;strokeWidth=2;strokeColor=#7C7C7B;gradientDirection=south;arcSize=50;imageHeight=24;perimeterSpacing=10;fontFamily=Roboto;fontSource=https%3A%2F%2Ffonts.googleapis.com%2Fcss%3Ffamily%3DRoboto;" vertex="1" parent="XSCT2WYPgkQ0aujzjNFR-40">
          <mxGeometry width="200" height="80" as="geometry" />
        </mxCell>
        <mxCell id="XSCT2WYPgkQ0aujzjNFR-42" value="&lt;font&gt;vm pool&lt;/font&gt;" style="text;strokeColor=none;fillColor=none;align=center;verticalAlign=middle;rounded=0;sketch=0;fontFamily=Roboto;fontStyle=1;fontSize=20;spacing=0;html=1;fontSource=https%3A%2F%2Ffonts.googleapis.com%2Fcss%3Ffamily%3DRoboto;" vertex="1" parent="XSCT2WYPgkQ0aujzjNFR-40">
          <mxGeometry x="80" y="14" width="110" height="21" as="geometry" />
        </mxCell>
        <mxCell id="XSCT2WYPgkQ0aujzjNFR-43" value="&lt;span style=&quot;color: rgb(218, 41, 28); font-size: 18px; font-weight: normal;&quot;&gt;&lt;font&gt;web servers&lt;/font&gt;&lt;/span&gt;" style="text;strokeColor=none;fillColor=none;align=center;verticalAlign=middle;rounded=0;sketch=0;fontFamily=Roboto;fontStyle=1;fontSize=16;spacing=0;html=1;fontSource=https%3A%2F%2Ffonts.googleapis.com%2Fcss%3Ffamily%3DRoboto;" vertex="1" parent="XSCT2WYPgkQ0aujzjNFR-40">
          <mxGeometry x="80" y="43" width="110" height="21" as="geometry" />
        </mxCell>
        <mxCell id="XSCT2WYPgkQ0aujzjNFR-44" value="" style="endArrow=none;html=1;fontSize=20;fontColor=#E42313;strokeColor=#E42313;align=center;rounded=0;fontFamily=Roboto;fontSource=https%3A%2F%2Ffonts.googleapis.com%2Fcss%3Ffamily%3DRoboto;" edge="1" parent="XSCT2WYPgkQ0aujzjNFR-40">
          <mxGeometry width="50" height="50" as="geometry">
            <mxPoint x="80" y="39.75" as="sourcePoint" />
            <mxPoint x="190" y="39.75" as="targetPoint" />
          </mxGeometry>
        </mxCell>
        <mxCell id="XSCT2WYPgkQ0aujzjNFR-45" value="" style="shape=image;verticalLabelPosition=bottom;verticalAlign=top;imageAspect=0;aspect=fixed;image=data:image/svg+xml,PHN2ZyB4bWxucz0iaHR0cDovL3d3dy53My5vcmcvMjAwMC9zdmciIHZpZXdCb3g9IjAgMCA2Mi4zNjE5OTk1MTE3MTg3NSA2Mi4zNjE5OTk1MTE3MTg3NSIgd2lkdGg9IjYyLjM2MTk5OTUxMTcxODc1IiBoZWlnaHQ9IjYyLjM2MTk5OTUxMTcxODc1Ij48cGF0aCBzdHlsZT0iZmlsbDojZGEyOTFjIiBkPSJNMzEuMzE1IDYyLjM2MkMxMy40ODMgNjIuMzYyIDAgNDcuNTkgMCAzMS4zMTUgMCAxMi42MzMgMTUuNTU3IDAgMzEuMDggMGMxOC42MDIgMCAzMS4yODIgMTUuMzQgMzEuMjgyIDMwLjk0NyAwIDE5LjA1LTE1LjY1NyAzMS40MTUtMzEuMDQ3IDMxLjQxNSIvPjxwYXRoIHN0eWxlPSJmaWxsOiNmZmYiIGQ9Ik0yNC4wMDYgNDYuNzM4Yy0uMjAzIDAtLjUtLjAyNS0uNzU1LS4xNDVsLTUuNDc4LTIuNTU1Yy0uMzMtLjE1NC0uNTI1LS40MzgtLjUyLS43Ni4wMDQtLjIxNy4xMDYtLjYyMy43NC0uODkuMzAxLS4xMjcuNjYtLjE5NyAxLjAxLS4xOTcuMjAyIDAgLjQ5Ny4wMjYuNzUzLjE0NGw1LjQ3OSAyLjU1NmMuMzMxLjE1NS41MjUuNDQuNTE5Ljc2MS0uMDA0LjIxNy0uMTA1LjYyMy0uNzQuODlhMi43IDIuNyAwIDAgMS0xLjAwOC4xOTYiLz48cGF0aCBzdHlsZT0iZmlsbDojZGEyOTFjIiBkPSJNMTkuMDAyIDQyLjc4N2MuMTk1IDAgLjM3NS4wMjkuNTAzLjA4OWw1LjQ3OCAyLjU1NGMuMjk4LjE0LjIwOS4zOTItLjIuNTY0YTIuMSAyLjEgMCAwIDEtLjc3OC4xNDljLS4xOTUgMC0uMzc0LS4wMy0uNTAyLS4wODlMMTguMDI1IDQzLjVjLS4yOTktLjEzOS0uMjA5LS4zOS4yLS41NjMuMjMzLS4wOTguNTE5LS4xNS43NzctLjE1bTAtMS4xOWMtLjQyOCAwLS44NjguMDg3LTEuMjQuMjQzLS45OC40MTMtMS4wOTggMS4xMzYtMS4xMDMgMS40MjctLjAxLjU1Ni4zMiAxLjA1OS44NjMgMS4zMTJMMjMgNDcuMTMzYy4yODUuMTMzLjYyMy4yIDEuMDA1LjIuNDI5IDAgLjg2OS0uMDg2IDEuMjQtLjI0My45OC0uNDEzIDEuMDk4LTEuMTM1IDEuMTA0LTEuNDI3LjAxLS41NTYtLjMyLTEuMDU4LS44NjMtMS4zMTFsLTUuNDc4LTIuNTU1YTIuNCAyLjQgMCAwIDAtMS4wMDUtLjJaIi8+PHBhdGggc3R5bGU9ImZpbGw6I2RhMjkxYyIgZD0iTTMxLjc4NCA0Ny40ODJjLS40NjYgMC0uOTE1LS4xLTEuMzM2LS4yOTdsLTE0LjAzNC02LjU0M2ExLjA0IDEuMDQgMCAwIDEtLjYxNi0uOTg3Yy4wMDgtLjQzNC4yNTItLjc5NS42NTItLjk2NGwxNC4zNTgtNi4wNTNhMi43NCAyLjc0IDAgMCAxIDIuMjI4LjA0MmwxNC4yIDYuNjIyYy4zOTQuMTgzLjYyNC41NTIuNjE3Ljk4NnMtLjI1Mi43OTUtLjY1My45NjRsLTE0LjE4OCA1Ljk4MmMtLjM5LjE2NC0uODA0LjI0OC0xLjIyOC4yNDgiLz48cGF0aCBzdHlsZT0iZmlsbDojZGEyOTFjIiBkPSJNMzEuODc2IDMzLjAxOGMuMzE2IDAgLjYyMy4wNjguOTEuMjAxbDE0LjIgNi42MjJhLjQ1LjQ1IDAgMCAxIC4yNzIuNDM2LjQ1LjQ1IDAgMCAxLS4yODkuNDI2TDMyLjc4IDQ2LjY4NmEyLjYgMi42IDAgMCAxLS45OTcuMjAyYy0uMzc3IDAtLjc0Mi0uMDgtMS4wODUtLjI0bC0xNC4wMzMtNi41NDRhLjQ1LjQ1IDAgMCAxLS4yNzItLjQzNy40NS40NSAwIDAgMSAuMjg4LS40MjZsMTQuMzU4LTYuMDUzcS40MDItLjE2OS44MzctLjE3bTAtMS4xOWMtLjQ0MiAwLS44ODMuMDg4LTEuMjk5LjI2M0wxNi4yMiAzOC4xNDNjLTEuMzI4LjU2LTEuMzYzIDIuNDMtLjA1NyAzLjAzOGwxNC4wMzQgNi41NDRhMy43NiAzLjc2IDAgMCAwIDMuMDQ3LjA1N0w0Ny40MyA0MS44YzEuMzI4LS41NiAxLjM2My0yLjQyOS4wNTctMy4wMzhsLTE0LjItNi42MjFhMy4zIDMuMyAwIDAgMC0xLjQxMi0uMzE0WiIvPjxwYXRoIHN0eWxlPSJmaWxsOiNmZmYiIGQ9Ik0zMS44NzYgMzEuODg3cS40NjQgMCAuODg0LjE5NmwxNC4yIDYuNjIxYy4yMTEuMDk5LjI0LjI4MS4yMzguMzgxYS4zOS4zOSAwIDAgMS0uMjUyLjM3MkwzMi43NTcgNDUuNDRhMi41IDIuNSAwIDAgMS0yLjAzMy0uMDM4TDE2LjY5IDM4Ljg1N2EuMzkuMzkgMCAwIDEtLjIzOC0uMzguMzkuMzkgMCAwIDEgLjI1Mi0uMzcybDE0LjM1OC02LjA1NHEuMzktLjE2NC44MTMtLjE2NG0wLTEuMjVjLS40NDIgMC0uODgzLjA4Ny0xLjI5OS4yNjJMMTYuMjIgMzYuOTUzYy0xLjMyOC41Ni0xLjM2MyAyLjQyOC0uMDU3IDMuMDM3bDE0LjAzNCA2LjU0NGEzLjc2IDMuNzYgMCAwIDAgMy4wNDcuMDU3bDE0LjE4OC01Ljk4MmMxLjMyOC0uNTYgMS4zNjMtMi40MjkuMDU3LTMuMDM4bC0xNC4yLTYuNjIxYTMuMyAzLjMgMCAwIDAtMS40MTItLjMxM1oiLz48cGF0aCBzdHlsZT0iZmlsbDojZmZmIiBkPSJNMjMuNjY5IDM3Ljk2Yy0uMjAzIDAtLjQ5OC0uMDI0LS43NTQtLjE0NGwtNS40OC0yLjU1NWMtLjMzLS4xNTQtLjUyNS0uNDM5LS41MTgtLjc2LjAwNC0uMjE5LjEwNS0uNjI0Ljc0LS44OTFhMi43IDIuNyAwIDAgMSAxLjAwOC0uMTk2Yy4yMDIgMCAuNDk3LjAyNS43NTQuMTQ0bDUuNDc5IDIuNTU2Yy4zMy4xNTQuNTI1LjQzOC41MTkuNzYtLjAwNC4yMTgtLjEwNi42MjMtLjc0MS44OWEyLjcgMi43IDAgMCAxLTEuMDA3LjE5NiIvPjxwYXRoIHN0eWxlPSJmaWxsOiNkYTI5MWMiIGQ9Ik0xOC42NjUgMzQuMDA5Yy4xOTUgMCAuMzc0LjAzLjUwMi4wODlsNS40NzkgMi41NTVjLjI5OC4xMzkuMjA4LjM5LS4yLjU2My0uMjMzLjA5OC0uNTIuMTUtLjc3OC4xNS0uMTk1IDAtLjM3NC0uMDMtLjUwMi0uMDlsLTUuNDc5LTIuNTU0Yy0uMjk4LS4xNC0uMjA4LS4zOTIuMi0uNTY0YTIuMSAyLjEgMCAwIDEgLjc3OC0uMTQ5bTAtMS4xOWMtLjQyOCAwLS44NjkuMDg2LTEuMjQuMjQzLS45OC40MTMtMS4wOTggMS4xMzUtMS4xMDQgMS40MjctLjAxLjU1Ni4zMiAxLjA1OC44NjMgMS4zMTFsNS40NzkgMi41NTVjLjI4NS4xMzMuNjIzLjIgMS4wMDUuMi40MjggMCAuODY5LS4wODYgMS4yNC0uMjQyLjk4LS40MTMgMS4wOTgtMS4xMzYgMS4xMDQtMS40MjcuMDEtLjU1Ni0uMzItMS4wNTktLjg2My0xLjMxMmwtNS40NzktMi41NTVhMi40IDIuNCAwIDAgMC0xLjAwNS0uMiIvPjxwYXRoIHN0eWxlPSJmaWxsOiNkYTI5MWMiIGQ9Ik0zMS40NDYgMzguNzA0Yy0uNDY1IDAtLjkxNC0uMS0xLjMzNi0uMjk2bC0xNC4wMzMtNi41NDRhMS4wNCAxLjA0IDAgMCAxLS42MTYtLjk4NyAxLjA0IDEuMDQgMCAwIDEgLjY1Mi0uOTYzbDE0LjM1OC02LjA1M2EyLjc0IDIuNzQgMCAwIDEgMi4yMjguMDQxbDE0LjIgNi42MjFjLjM5NC4xODUuNjI0LjU1NC42MTcuOTg4YTEuMDQgMS4wNCAwIDAgMS0uNjU0Ljk2NGwtMTQuMTg4IDUuOTgxYy0uMzkuMTY1LS44MDMuMjQ4LTEuMjI4LjI0OCIvPjxwYXRoIHN0eWxlPSJmaWxsOiNkYTI5MWMiIGQ9Ik0zMS41MzkgMjQuMjRjLjMxNiAwIC42MjIuMDY4LjkxLjIwMmwxNC4xOTkgNi42MjFhLjQ1LjQ1IDAgMCAxIC4yNzIuNDM3LjQ1LjQ1IDAgMCAxLS4yODguNDI2bC0xNC4xODkgNS45ODJhMi42IDIuNiAwIDAgMS0uOTk3LjIwMSAyLjU0IDIuNTQgMCAwIDEtMS4wODUtLjI0bC0xNC4wMzMtNi41NDRhLjQ1LjQ1IDAgMCAxLS4yNzItLjQzNy40NS40NSAwIDAgMSAuMjg4LS40MjZsMTQuMzU4LTYuMDUzYy4yNjYtLjExMi41NDgtLjE3LjgzNy0uMTdtMC0xLjE5Yy0uNDQyIDAtLjg4NC4wODgtMS4zLjI2M2wtMTQuMzU3IDYuMDU0Yy0xLjMyOC41Ni0xLjM2MyAyLjQyOC0uMDU3IDMuMDM3bDE0LjAzMyA2LjU0NGEzLjc2IDMuNzYgMCAwIDAgMy4wNDcuMDU3bDE0LjE5LTUuOTgyYzEuMzI3LS41NiAxLjM2Mi0yLjQyOS4wNTYtMy4wMzhsLTE0LjItNi42MjFhMy4zIDMuMyAwIDAgMC0xLjQxMy0uMzEzWiIvPjxwYXRoIHN0eWxlPSJmaWxsOiNmZmYiIGQ9Ik0zMS41MzkgMjMuMTFjLjMwNyAwIC42MDUuMDY1Ljg4NC4xOTVsMTQuMiA2LjYyMmMuMjEuMDk4LjI0LjI4LjIzNy4zOGEuMzkuMzkgMCAwIDEtLjI1MS4zNzNsLTE0LjE5IDUuOTgyYTIuNSAyLjUgMCAwIDEtMi4wMzItLjAzOEwxNi4zNTMgMzAuMDhhLjM5LjM5IDAgMCAxLS4yMzctLjM4MS4zOS4zOSAwIDAgMSAuMjUxLS4zNzJsMTQuMzU5LTYuMDUzYy4yNTgtLjExLjUzMi0uMTY1LjgxMy0uMTY1bTAtMS4yNWMtLjQ0MiAwLS44ODQuMDg4LTEuMy4yNjNsLTE0LjM1NyA2LjA1M2MtMS4zMjguNTYtMS4zNjMgMi40MjktLjA1NyAzLjAzOGwxNC4wMzMgNi41NDRhMy43NiAzLjc2IDAgMCAwIDMuMDQ3LjA1NmwxNC4xOS01Ljk4MmMxLjMyNy0uNTYgMS4zNjItMi40MjguMDU2LTMuMDM3bC0xNC4yLTYuNjIyYTMuMyAzLjMgMCAwIDAtMS40MTMtLjMxMyIvPjxwYXRoIHN0eWxlPSJmaWxsOiNmZmYiIGQ9Ik0yMy4zMyAyOS4xODNjLS4yMDEgMC0uNDk2LS4wMjUtLjc1My0uMTQ0bC01LjQ3OS0yLjU1NmMtLjMzMS0uMTU0LS41MjUtLjQ0LS41MTktLjc2LjAwNC0uMjE5LjEwNi0uNjIzLjc0LS44OWEyLjcgMi43IDAgMCAxIDEuMDA4LS4xOTdjLjIwMyAwIC40OTkuMDI2Ljc1NS4xNDVsNS40NzggMi41NTVjLjMzMS4xNTQuNTI1LjQzOS41Mi43Ni0uMDA1LjIxOC0uMTA2LjYyMy0uNzQuODlhMi43IDIuNyAwIDAgMS0xLjAxLjE5NyIvPjxwYXRoIHN0eWxlPSJmaWxsOiNkYTI5MWMiIGQ9Ik0xOC4zMjggMjUuMjMxYy4xOTUgMCAuMzc0LjAzLjUwMi4wOWw1LjQ3OSAyLjU1NGMuMjk4LjEzOS4yMDguMzkxLS4yLjU2NC0uMjM0LjA5OC0uNTIuMTQ5LS43NzguMTQ5LS4xOTUgMC0uMzc0LS4wMy0uNTAzLS4wOWwtNS40NzgtMi41NTRjLS4yOTgtLjEzOS0uMjA4LS4zOTEuMi0uNTYzLjIzMy0uMDk5LjUyLS4xNS43NzgtLjE1bTAtMS4xOWMtLjQyOSAwLS44NjkuMDg2LTEuMjQuMjQzLS45OC40MTMtMS4wOTggMS4xMzYtMS4xMDQgMS40MjctLjAxLjU1Ni4zMiAxLjA1OS44NjMgMS4zMTJsNS40NzggMi41NTRxLjQzMS4yIDEuMDA2LjJjLjQyOCAwIC44NjgtLjA4NiAxLjI0LS4yNDIuOTgtLjQxMyAxLjA5OC0xLjEzNiAxLjEwMy0xLjQyNy4wMS0uNTU2LS4zMi0xLjA1OS0uODYzLTEuMzEybC01LjQ3OC0yLjU1NGEyLjQgMi40IDAgMCAwLTEuMDA1LS4yIi8+PHBhdGggc3R5bGU9ImZpbGw6I2RhMjkxYyIgZD0iTTMxLjEwOSAyOS45MjZjLS40NjUgMC0uOTE1LS4xLTEuMzM3LS4yOTZMMTUuNzQgMjMuMDg3YTEuMDQgMS4wNCAwIDAgMS0uNjE1LS45ODcgMS4wNCAxLjA0IDAgMCAxIC42NTEtLjk2M2wxNC4zNTgtNi4wNTRhMi43NCAyLjc0IDAgMCAxIDIuMjI4LjA0MmwxNC4yMDIgNi42MjFjLjM5My4xODQuNjI0LjU1My42MTUuOTg4YTEuMDQgMS4wNCAwIDAgMS0uNjUyLjk2MmwtMTQuMTg5IDUuOTgyYy0uMzkuMTY1LS44MDQuMjQ4LTEuMjI4LjI0OFoiLz48cGF0aCBzdHlsZT0iZmlsbDojZGEyOTFjIiBkPSJNMzEuMjAxIDE1LjQ2MmMuMzE3IDAgLjYyMy4wNjguOTEuMjAybDE0LjIgNi42MjJhLjQ1LjQ1IDAgMCAxIC4yNzIuNDM2LjQ1LjQ1IDAgMCAxLS4yODguNDI2bC0xNC4xOSA1Ljk4MmEyLjYgMi42IDAgMCAxLS45OTYuMjAyYy0uMzc4IDAtLjc0My0uMDgxLTEuMDg1LS4yNEwxNS45OSAyMi41NDZhLjQ1LjQ1IDAgMCAxLS4yNzMtLjQzNi40NS40NSAwIDAgMSAuMjg5LS40MjZsMTQuMzU4LTYuMDU0cS40LS4xNjkuODM2LS4xNjltMC0xLjE5Yy0uNDQxIDAtLjg4My4wODgtMS4yOTguMjYzbC0xNC4zNTggNi4wNTNjLTEuMzI4LjU2LTEuMzYzIDIuNDI5LS4wNTcgMy4wMzhMMjkuNTIgMzAuMTdhMy43NiAzLjc2IDAgMCAwIDMuMDQ3LjA1NmwxNC4xODktNS45ODFjMS4zMjgtLjU2IDEuMzYzLTIuNDMuMDU3LTMuMDM4bC0xNC4yLTYuNjIyYTMuMyAzLjMgMCAwIDAtMS40MTMtLjMxM1oiLz48cGF0aCBzdHlsZT0iZmlsbDojZmZmIiBkPSJNMzEuMjAxIDE0LjMzMnEuNDY0IDAgLjg4NC4xOTZsMTQuMiA2LjYyMWMuMjEyLjA5OS4yNC4yODEuMjM4LjM4MWEuMzkuMzkgMCAwIDEtLjI1Mi4zNzJsLTE0LjE4OSA1Ljk4MmEyLjUgMi41IDAgMCAxLTIuMDMzLS4wMzhsLTE0LjAzMy02LjU0NGEuMzkuMzkgMCAwIDEtLjIzOC0uMzguMzkuMzkgMCAwIDEgLjI1Mi0uMzczbDE0LjM1OC02LjA1M3EuMzktLjE2NC44MTMtLjE2NG0wLTEuMjVjLS40NDEgMC0uODgzLjA4Ny0xLjI5OC4yNjJsLTE0LjM1OCA2LjA1M2MtMS4zMjguNTYtMS4zNjMgMi40My0uMDU3IDMuMDM4TDI5LjUyIDI4Ljk4YTMuNzYgMy43NiAwIDAgMCAzLjA0Ny4wNTdsMTQuMTg5LTUuOTgyYzEuMzI4LS41NiAxLjM2My0yLjQyOS4wNTctMy4wMzhsLTE0LjItNi42MjFhMy4zIDMuMyAwIDAgMC0xLjQxMy0uMzE0WiIvPjwvc3ZnPg==;fontFamily=Roboto;fontSource=https%3A%2F%2Ffonts.googleapis.com%2Fcss%3Ffamily%3DRoboto;" vertex="1" parent="XSCT2WYPgkQ0aujzjNFR-40">
          <mxGeometry x="10" y="9" width="62" height="62" as="geometry" />
        </mxCell>
        <mxCell id="XSCT2WYPgkQ0aujzjNFR-46" value="" style="group;fontFamily=Roboto;fontSource=https%3A%2F%2Ffonts.googleapis.com%2Fcss%3Ffamily%3DRoboto;" vertex="1" connectable="0" parent="1">
          <mxGeometry x="520" y="1400" width="200" height="80" as="geometry" />
        </mxCell>
        <mxCell id="XSCT2WYPgkQ0aujzjNFR-47" value="" style="rounded=1;whiteSpace=wrap;html=1;strokeWidth=2;strokeColor=#7C7C7B;gradientDirection=south;arcSize=50;imageHeight=24;perimeterSpacing=10;fontFamily=Roboto;fontSource=https%3A%2F%2Ffonts.googleapis.com%2Fcss%3Ffamily%3DRoboto;" vertex="1" parent="XSCT2WYPgkQ0aujzjNFR-46">
          <mxGeometry width="200" height="80" as="geometry" />
        </mxCell>
        <mxCell id="XSCT2WYPgkQ0aujzjNFR-48" value="&lt;font&gt;vm pool&lt;/font&gt;" style="text;strokeColor=none;fillColor=none;align=center;verticalAlign=middle;rounded=0;sketch=0;fontFamily=Roboto;fontStyle=1;fontSize=20;spacing=0;html=1;fontSource=https%3A%2F%2Ffonts.googleapis.com%2Fcss%3Ffamily%3DRoboto;" vertex="1" parent="XSCT2WYPgkQ0aujzjNFR-46">
          <mxGeometry x="80" y="14" width="110" height="21" as="geometry" />
        </mxCell>
        <mxCell id="XSCT2WYPgkQ0aujzjNFR-49" value="&lt;span style=&quot;color: rgb(218, 41, 28); font-size: 18px; font-weight: normal;&quot;&gt;&lt;font&gt;web servers&lt;/font&gt;&lt;/span&gt;" style="text;strokeColor=none;fillColor=none;align=center;verticalAlign=middle;rounded=0;sketch=0;fontFamily=Roboto;fontStyle=1;fontSize=16;spacing=0;html=1;fontSource=https%3A%2F%2Ffonts.googleapis.com%2Fcss%3Ffamily%3DRoboto;" vertex="1" parent="XSCT2WYPgkQ0aujzjNFR-46">
          <mxGeometry x="80" y="43" width="110" height="21" as="geometry" />
        </mxCell>
        <mxCell id="XSCT2WYPgkQ0aujzjNFR-50" value="" style="endArrow=none;html=1;fontSize=20;fontColor=#E42313;strokeColor=#E42313;align=center;rounded=0;fontFamily=Roboto;fontSource=https%3A%2F%2Ffonts.googleapis.com%2Fcss%3Ffamily%3DRoboto;" edge="1" parent="XSCT2WYPgkQ0aujzjNFR-46">
          <mxGeometry width="50" height="50" as="geometry">
            <mxPoint x="80" y="39.75" as="sourcePoint" />
            <mxPoint x="190" y="39.75" as="targetPoint" />
          </mxGeometry>
        </mxCell>
        <mxCell id="XSCT2WYPgkQ0aujzjNFR-51" value="" style="shape=image;verticalLabelPosition=bottom;verticalAlign=top;imageAspect=0;aspect=fixed;image=data:image/svg+xml,PHN2ZyB4bWxucz0iaHR0cDovL3d3dy53My5vcmcvMjAwMC9zdmciIHZpZXdCb3g9IjAgMCA2Mi4zNjE5OTk1MTE3MTg3NSA2Mi4zNjE5OTk1MTE3MTg3NSIgd2lkdGg9IjYyLjM2MTk5OTUxMTcxODc1IiBoZWlnaHQ9IjYyLjM2MTk5OTUxMTcxODc1Ij48cGF0aCBzdHlsZT0iZmlsbDojZGEyOTFjIiBkPSJNMzEuMzE1IDYyLjM2MkMxMy40ODMgNjIuMzYyIDAgNDcuNTkgMCAzMS4zMTUgMCAxMi42MzMgMTUuNTU3IDAgMzEuMDggMGMxOC42MDIgMCAzMS4yODIgMTUuMzQgMzEuMjgyIDMwLjk0NyAwIDE5LjA1LTE1LjY1NyAzMS40MTUtMzEuMDQ3IDMxLjQxNSIvPjxwYXRoIHN0eWxlPSJmaWxsOiNmZmYiIGQ9Ik0yNC4wMDYgNDYuNzM4Yy0uMjAzIDAtLjUtLjAyNS0uNzU1LS4xNDVsLTUuNDc4LTIuNTU1Yy0uMzMtLjE1NC0uNTI1LS40MzgtLjUyLS43Ni4wMDQtLjIxNy4xMDYtLjYyMy43NC0uODkuMzAxLS4xMjcuNjYtLjE5NyAxLjAxLS4xOTcuMjAyIDAgLjQ5Ny4wMjYuNzUzLjE0NGw1LjQ3OSAyLjU1NmMuMzMxLjE1NS41MjUuNDQuNTE5Ljc2MS0uMDA0LjIxNy0uMTA1LjYyMy0uNzQuODlhMi43IDIuNyAwIDAgMS0xLjAwOC4xOTYiLz48cGF0aCBzdHlsZT0iZmlsbDojZGEyOTFjIiBkPSJNMTkuMDAyIDQyLjc4N2MuMTk1IDAgLjM3NS4wMjkuNTAzLjA4OWw1LjQ3OCAyLjU1NGMuMjk4LjE0LjIwOS4zOTItLjIuNTY0YTIuMSAyLjEgMCAwIDEtLjc3OC4xNDljLS4xOTUgMC0uMzc0LS4wMy0uNTAyLS4wODlMMTguMDI1IDQzLjVjLS4yOTktLjEzOS0uMjA5LS4zOS4yLS41NjMuMjMzLS4wOTguNTE5LS4xNS43NzctLjE1bTAtMS4xOWMtLjQyOCAwLS44NjguMDg3LTEuMjQuMjQzLS45OC40MTMtMS4wOTggMS4xMzYtMS4xMDMgMS40MjctLjAxLjU1Ni4zMiAxLjA1OS44NjMgMS4zMTJMMjMgNDcuMTMzYy4yODUuMTMzLjYyMy4yIDEuMDA1LjIuNDI5IDAgLjg2OS0uMDg2IDEuMjQtLjI0My45OC0uNDEzIDEuMDk4LTEuMTM1IDEuMTA0LTEuNDI3LjAxLS41NTYtLjMyLTEuMDU4LS44NjMtMS4zMTFsLTUuNDc4LTIuNTU1YTIuNCAyLjQgMCAwIDAtMS4wMDUtLjJaIi8+PHBhdGggc3R5bGU9ImZpbGw6I2RhMjkxYyIgZD0iTTMxLjc4NCA0Ny40ODJjLS40NjYgMC0uOTE1LS4xLTEuMzM2LS4yOTdsLTE0LjAzNC02LjU0M2ExLjA0IDEuMDQgMCAwIDEtLjYxNi0uOTg3Yy4wMDgtLjQzNC4yNTItLjc5NS42NTItLjk2NGwxNC4zNTgtNi4wNTNhMi43NCAyLjc0IDAgMCAxIDIuMjI4LjA0MmwxNC4yIDYuNjIyYy4zOTQuMTgzLjYyNC41NTIuNjE3Ljk4NnMtLjI1Mi43OTUtLjY1My45NjRsLTE0LjE4OCA1Ljk4MmMtLjM5LjE2NC0uODA0LjI0OC0xLjIyOC4yNDgiLz48cGF0aCBzdHlsZT0iZmlsbDojZGEyOTFjIiBkPSJNMzEuODc2IDMzLjAxOGMuMzE2IDAgLjYyMy4wNjguOTEuMjAxbDE0LjIgNi42MjJhLjQ1LjQ1IDAgMCAxIC4yNzIuNDM2LjQ1LjQ1IDAgMCAxLS4yODkuNDI2TDMyLjc4IDQ2LjY4NmEyLjYgMi42IDAgMCAxLS45OTcuMjAyYy0uMzc3IDAtLjc0Mi0uMDgtMS4wODUtLjI0bC0xNC4wMzMtNi41NDRhLjQ1LjQ1IDAgMCAxLS4yNzItLjQzNy40NS40NSAwIDAgMSAuMjg4LS40MjZsMTQuMzU4LTYuMDUzcS40MDItLjE2OS44MzctLjE3bTAtMS4xOWMtLjQ0MiAwLS44ODMuMDg4LTEuMjk5LjI2M0wxNi4yMiAzOC4xNDNjLTEuMzI4LjU2LTEuMzYzIDIuNDMtLjA1NyAzLjAzOGwxNC4wMzQgNi41NDRhMy43NiAzLjc2IDAgMCAwIDMuMDQ3LjA1N0w0Ny40MyA0MS44YzEuMzI4LS41NiAxLjM2My0yLjQyOS4wNTctMy4wMzhsLTE0LjItNi42MjFhMy4zIDMuMyAwIDAgMC0xLjQxMi0uMzE0WiIvPjxwYXRoIHN0eWxlPSJmaWxsOiNmZmYiIGQ9Ik0zMS44NzYgMzEuODg3cS40NjQgMCAuODg0LjE5NmwxNC4yIDYuNjIxYy4yMTEuMDk5LjI0LjI4MS4yMzguMzgxYS4zOS4zOSAwIDAgMS0uMjUyLjM3MkwzMi43NTcgNDUuNDRhMi41IDIuNSAwIDAgMS0yLjAzMy0uMDM4TDE2LjY5IDM4Ljg1N2EuMzkuMzkgMCAwIDEtLjIzOC0uMzguMzkuMzkgMCAwIDEgLjI1Mi0uMzcybDE0LjM1OC02LjA1NHEuMzktLjE2NC44MTMtLjE2NG0wLTEuMjVjLS40NDIgMC0uODgzLjA4Ny0xLjI5OS4yNjJMMTYuMjIgMzYuOTUzYy0xLjMyOC41Ni0xLjM2MyAyLjQyOC0uMDU3IDMuMDM3bDE0LjAzNCA2LjU0NGEzLjc2IDMuNzYgMCAwIDAgMy4wNDcuMDU3bDE0LjE4OC01Ljk4MmMxLjMyOC0uNTYgMS4zNjMtMi40MjkuMDU3LTMuMDM4bC0xNC4yLTYuNjIxYTMuMyAzLjMgMCAwIDAtMS40MTItLjMxM1oiLz48cGF0aCBzdHlsZT0iZmlsbDojZmZmIiBkPSJNMjMuNjY5IDM3Ljk2Yy0uMjAzIDAtLjQ5OC0uMDI0LS43NTQtLjE0NGwtNS40OC0yLjU1NWMtLjMzLS4xNTQtLjUyNS0uNDM5LS41MTgtLjc2LjAwNC0uMjE5LjEwNS0uNjI0Ljc0LS44OTFhMi43IDIuNyAwIDAgMSAxLjAwOC0uMTk2Yy4yMDIgMCAuNDk3LjAyNS43NTQuMTQ0bDUuNDc5IDIuNTU2Yy4zMy4xNTQuNTI1LjQzOC41MTkuNzYtLjAwNC4yMTgtLjEwNi42MjMtLjc0MS44OWEyLjcgMi43IDAgMCAxLTEuMDA3LjE5NiIvPjxwYXRoIHN0eWxlPSJmaWxsOiNkYTI5MWMiIGQ9Ik0xOC42NjUgMzQuMDA5Yy4xOTUgMCAuMzc0LjAzLjUwMi4wODlsNS40NzkgMi41NTVjLjI5OC4xMzkuMjA4LjM5LS4yLjU2My0uMjMzLjA5OC0uNTIuMTUtLjc3OC4xNS0uMTk1IDAtLjM3NC0uMDMtLjUwMi0uMDlsLTUuNDc5LTIuNTU0Yy0uMjk4LS4xNC0uMjA4LS4zOTIuMi0uNTY0YTIuMSAyLjEgMCAwIDEgLjc3OC0uMTQ5bTAtMS4xOWMtLjQyOCAwLS44NjkuMDg2LTEuMjQuMjQzLS45OC40MTMtMS4wOTggMS4xMzUtMS4xMDQgMS40MjctLjAxLjU1Ni4zMiAxLjA1OC44NjMgMS4zMTFsNS40NzkgMi41NTVjLjI4NS4xMzMuNjIzLjIgMS4wMDUuMi40MjggMCAuODY5LS4wODYgMS4yNC0uMjQyLjk4LS40MTMgMS4wOTgtMS4xMzYgMS4xMDQtMS40MjcuMDEtLjU1Ni0uMzItMS4wNTktLjg2My0xLjMxMmwtNS40NzktMi41NTVhMi40IDIuNCAwIDAgMC0xLjAwNS0uMiIvPjxwYXRoIHN0eWxlPSJmaWxsOiNkYTI5MWMiIGQ9Ik0zMS40NDYgMzguNzA0Yy0uNDY1IDAtLjkxNC0uMS0xLjMzNi0uMjk2bC0xNC4wMzMtNi41NDRhMS4wNCAxLjA0IDAgMCAxLS42MTYtLjk4NyAxLjA0IDEuMDQgMCAwIDEgLjY1Mi0uOTYzbDE0LjM1OC02LjA1M2EyLjc0IDIuNzQgMCAwIDEgMi4yMjguMDQxbDE0LjIgNi42MjFjLjM5NC4xODUuNjI0LjU1NC42MTcuOTg4YTEuMDQgMS4wNCAwIDAgMS0uNjU0Ljk2NGwtMTQuMTg4IDUuOTgxYy0uMzkuMTY1LS44MDMuMjQ4LTEuMjI4LjI0OCIvPjxwYXRoIHN0eWxlPSJmaWxsOiNkYTI5MWMiIGQ9Ik0zMS41MzkgMjQuMjRjLjMxNiAwIC42MjIuMDY4LjkxLjIwMmwxNC4xOTkgNi42MjFhLjQ1LjQ1IDAgMCAxIC4yNzIuNDM3LjQ1LjQ1IDAgMCAxLS4yODguNDI2bC0xNC4xODkgNS45ODJhMi42IDIuNiAwIDAgMS0uOTk3LjIwMSAyLjU0IDIuNTQgMCAwIDEtMS4wODUtLjI0bC0xNC4wMzMtNi41NDRhLjQ1LjQ1IDAgMCAxLS4yNzItLjQzNy40NS40NSAwIDAgMSAuMjg4LS40MjZsMTQuMzU4LTYuMDUzYy4yNjYtLjExMi41NDgtLjE3LjgzNy0uMTdtMC0xLjE5Yy0uNDQyIDAtLjg4NC4wODgtMS4zLjI2M2wtMTQuMzU3IDYuMDU0Yy0xLjMyOC41Ni0xLjM2MyAyLjQyOC0uMDU3IDMuMDM3bDE0LjAzMyA2LjU0NGEzLjc2IDMuNzYgMCAwIDAgMy4wNDcuMDU3bDE0LjE5LTUuOTgyYzEuMzI3LS41NiAxLjM2Mi0yLjQyOS4wNTYtMy4wMzhsLTE0LjItNi42MjFhMy4zIDMuMyAwIDAgMC0xLjQxMy0uMzEzWiIvPjxwYXRoIHN0eWxlPSJmaWxsOiNmZmYiIGQ9Ik0zMS41MzkgMjMuMTFjLjMwNyAwIC42MDUuMDY1Ljg4NC4xOTVsMTQuMiA2LjYyMmMuMjEuMDk4LjI0LjI4LjIzNy4zOGEuMzkuMzkgMCAwIDEtLjI1MS4zNzNsLTE0LjE5IDUuOTgyYTIuNSAyLjUgMCAwIDEtMi4wMzItLjAzOEwxNi4zNTMgMzAuMDhhLjM5LjM5IDAgMCAxLS4yMzctLjM4MS4zOS4zOSAwIDAgMSAuMjUxLS4zNzJsMTQuMzU5LTYuMDUzYy4yNTgtLjExLjUzMi0uMTY1LjgxMy0uMTY1bTAtMS4yNWMtLjQ0MiAwLS44ODQuMDg4LTEuMy4yNjNsLTE0LjM1NyA2LjA1M2MtMS4zMjguNTYtMS4zNjMgMi40MjktLjA1NyAzLjAzOGwxNC4wMzMgNi41NDRhMy43NiAzLjc2IDAgMCAwIDMuMDQ3LjA1NmwxNC4xOS01Ljk4MmMxLjMyNy0uNTYgMS4zNjItMi40MjguMDU2LTMuMDM3bC0xNC4yLTYuNjIyYTMuMyAzLjMgMCAwIDAtMS40MTMtLjMxMyIvPjxwYXRoIHN0eWxlPSJmaWxsOiNmZmYiIGQ9Ik0yMy4zMyAyOS4xODNjLS4yMDEgMC0uNDk2LS4wMjUtLjc1My0uMTQ0bC01LjQ3OS0yLjU1NmMtLjMzMS0uMTU0LS41MjUtLjQ0LS41MTktLjc2LjAwNC0uMjE5LjEwNi0uNjIzLjc0LS44OWEyLjcgMi43IDAgMCAxIDEuMDA4LS4xOTdjLjIwMyAwIC40OTkuMDI2Ljc1NS4xNDVsNS40NzggMi41NTVjLjMzMS4xNTQuNTI1LjQzOS41Mi43Ni0uMDA1LjIxOC0uMTA2LjYyMy0uNzQuODlhMi43IDIuNyAwIDAgMS0xLjAxLjE5NyIvPjxwYXRoIHN0eWxlPSJmaWxsOiNkYTI5MWMiIGQ9Ik0xOC4zMjggMjUuMjMxYy4xOTUgMCAuMzc0LjAzLjUwMi4wOWw1LjQ3OSAyLjU1NGMuMjk4LjEzOS4yMDguMzkxLS4yLjU2NC0uMjM0LjA5OC0uNTIuMTQ5LS43NzguMTQ5LS4xOTUgMC0uMzc0LS4wMy0uNTAzLS4wOWwtNS40NzgtMi41NTRjLS4yOTgtLjEzOS0uMjA4LS4zOTEuMi0uNTYzLjIzMy0uMDk5LjUyLS4xNS43NzgtLjE1bTAtMS4xOWMtLjQyOSAwLS44NjkuMDg2LTEuMjQuMjQzLS45OC40MTMtMS4wOTggMS4xMzYtMS4xMDQgMS40MjctLjAxLjU1Ni4zMiAxLjA1OS44NjMgMS4zMTJsNS40NzggMi41NTRxLjQzMS4yIDEuMDA2LjJjLjQyOCAwIC44NjgtLjA4NiAxLjI0LS4yNDIuOTgtLjQxMyAxLjA5OC0xLjEzNiAxLjEwMy0xLjQyNy4wMS0uNTU2LS4zMi0xLjA1OS0uODYzLTEuMzEybC01LjQ3OC0yLjU1NGEyLjQgMi40IDAgMCAwLTEuMDA1LS4yIi8+PHBhdGggc3R5bGU9ImZpbGw6I2RhMjkxYyIgZD0iTTMxLjEwOSAyOS45MjZjLS40NjUgMC0uOTE1LS4xLTEuMzM3LS4yOTZMMTUuNzQgMjMuMDg3YTEuMDQgMS4wNCAwIDAgMS0uNjE1LS45ODcgMS4wNCAxLjA0IDAgMCAxIC42NTEtLjk2M2wxNC4zNTgtNi4wNTRhMi43NCAyLjc0IDAgMCAxIDIuMjI4LjA0MmwxNC4yMDIgNi42MjFjLjM5My4xODQuNjI0LjU1My42MTUuOTg4YTEuMDQgMS4wNCAwIDAgMS0uNjUyLjk2MmwtMTQuMTg5IDUuOTgyYy0uMzkuMTY1LS44MDQuMjQ4LTEuMjI4LjI0OFoiLz48cGF0aCBzdHlsZT0iZmlsbDojZGEyOTFjIiBkPSJNMzEuMjAxIDE1LjQ2MmMuMzE3IDAgLjYyMy4wNjguOTEuMjAybDE0LjIgNi42MjJhLjQ1LjQ1IDAgMCAxIC4yNzIuNDM2LjQ1LjQ1IDAgMCAxLS4yODguNDI2bC0xNC4xOSA1Ljk4MmEyLjYgMi42IDAgMCAxLS45OTYuMjAyYy0uMzc4IDAtLjc0My0uMDgxLTEuMDg1LS4yNEwxNS45OSAyMi41NDZhLjQ1LjQ1IDAgMCAxLS4yNzMtLjQzNi40NS40NSAwIDAgMSAuMjg5LS40MjZsMTQuMzU4LTYuMDU0cS40LS4xNjkuODM2LS4xNjltMC0xLjE5Yy0uNDQxIDAtLjg4My4wODgtMS4yOTguMjYzbC0xNC4zNTggNi4wNTNjLTEuMzI4LjU2LTEuMzYzIDIuNDI5LS4wNTcgMy4wMzhMMjkuNTIgMzAuMTdhMy43NiAzLjc2IDAgMCAwIDMuMDQ3LjA1NmwxNC4xODktNS45ODFjMS4zMjgtLjU2IDEuMzYzLTIuNDMuMDU3LTMuMDM4bC0xNC4yLTYuNjIyYTMuMyAzLjMgMCAwIDAtMS40MTMtLjMxM1oiLz48cGF0aCBzdHlsZT0iZmlsbDojZmZmIiBkPSJNMzEuMjAxIDE0LjMzMnEuNDY0IDAgLjg4NC4xOTZsMTQuMiA2LjYyMWMuMjEyLjA5OS4yNC4yODEuMjM4LjM4MWEuMzkuMzkgMCAwIDEtLjI1Mi4zNzJsLTE0LjE4OSA1Ljk4MmEyLjUgMi41IDAgMCAxLTIuMDMzLS4wMzhsLTE0LjAzMy02LjU0NGEuMzkuMzkgMCAwIDEtLjIzOC0uMzguMzkuMzkgMCAwIDEgLjI1Mi0uMzczbDE0LjM1OC02LjA1M3EuMzktLjE2NC44MTMtLjE2NG0wLTEuMjVjLS40NDEgMC0uODgzLjA4Ny0xLjI5OC4yNjJsLTE0LjM1OCA2LjA1M2MtMS4zMjguNTYtMS4zNjMgMi40My0uMDU3IDMuMDM4TDI5LjUyIDI4Ljk4YTMuNzYgMy43NiAwIDAgMCAzLjA0Ny4wNTdsMTQuMTg5LTUuOTgyYzEuMzI4LS41NiAxLjM2My0yLjQyOS4wNTctMy4wMzhsLTE0LjItNi42MjFhMy4zIDMuMyAwIDAgMC0xLjQxMy0uMzE0WiIvPjwvc3ZnPg==;fontFamily=Roboto;fontSource=https%3A%2F%2Ffonts.googleapis.com%2Fcss%3Ffamily%3DRoboto;" vertex="1" parent="XSCT2WYPgkQ0aujzjNFR-46">
          <mxGeometry x="10" y="9" width="62" height="62" as="geometry" />
        </mxCell>
        <mxCell id="XSCT2WYPgkQ0aujzjNFR-52" value="" style="group;fontFamily=Roboto;fontSource=https%3A%2F%2Ffonts.googleapis.com%2Fcss%3Ffamily%3DRoboto;" vertex="1" connectable="0" parent="1">
          <mxGeometry x="720" y="1240" width="200" height="80" as="geometry" />
        </mxCell>
        <mxCell id="XSCT2WYPgkQ0aujzjNFR-53" value="" style="rounded=1;whiteSpace=wrap;html=1;strokeWidth=2;strokeColor=#7C7C7B;gradientDirection=south;arcSize=50;imageHeight=24;perimeterSpacing=10;fontFamily=Roboto;fontSource=https%3A%2F%2Ffonts.googleapis.com%2Fcss%3Ffamily%3DRoboto;" vertex="1" parent="XSCT2WYPgkQ0aujzjNFR-52">
          <mxGeometry width="200" height="80" as="geometry" />
        </mxCell>
        <mxCell id="XSCT2WYPgkQ0aujzjNFR-54" value="&lt;font&gt;nlb&lt;/font&gt;" style="text;strokeColor=none;fillColor=none;align=center;verticalAlign=middle;rounded=0;sketch=0;fontFamily=Roboto;fontStyle=1;fontSize=20;spacing=0;html=1;fontSource=https%3A%2F%2Ffonts.googleapis.com%2Fcss%3Ffamily%3DRoboto;" vertex="1" parent="XSCT2WYPgkQ0aujzjNFR-52">
          <mxGeometry x="80" y="25" width="110" height="21" as="geometry" />
        </mxCell>
        <mxCell id="XSCT2WYPgkQ0aujzjNFR-55" value="" style="endArrow=none;html=1;fontSize=20;fontColor=#E42313;strokeColor=#E42313;align=center;rounded=0;fontFamily=Roboto;fontSource=https%3A%2F%2Ffonts.googleapis.com%2Fcss%3Ffamily%3DRoboto;" edge="1" parent="XSCT2WYPgkQ0aujzjNFR-52">
          <mxGeometry width="50" height="50" as="geometry">
            <mxPoint x="80" y="50.75" as="sourcePoint" />
            <mxPoint x="190" y="50.75" as="targetPoint" />
          </mxGeometry>
        </mxCell>
        <mxCell id="XSCT2WYPgkQ0aujzjNFR-56" value="" style="shape=image;verticalLabelPosition=bottom;labelBackgroundColor=default;verticalAlign=top;aspect=fixed;imageAspect=0;editableCssRules=.*;image=data:image/svg+xml,PHN2ZyB4bWxucz0iaHR0cDovL3d3dy53My5vcmcvMjAwMC9zdmciIHZpZXdCb3g9IjAgMCA2Mi4zNjE5OTk1MTE3MTg3NSA2Mi4zNjE5OTk1MTE3MTg3NSIgd2lkdGg9IjYyLjM2MTk5OTUxMTcxODc1IiBoZWlnaHQ9IjYyLjM2MTk5OTUxMTcxODc1Ij48cGF0aCBzdHlsZT0iZmlsbDojZGEyOTFjIiBkPSJNMzEuMzE1IDYyLjM2MkMxMy40ODMgNjIuMzYyIDAgNDcuNTkgMCAzMS4zMTUgMCAxMi42MzMgMTUuNTU3IDAgMzEuMDggMGMxOC42MDIgMCAzMS4yODIgMTUuMzQgMzEuMjgyIDMwLjk0NyAwIDE5LjA1LTE1LjY1NyAzMS40MTUtMzEuMDQ3IDMxLjQxNSIvPjxwYXRoIHN0eWxlPSJmaWxsOiNmZmYiIGQ9Im01Mi4zNjIgMjYuOS0yLjc4Mi4wMDcgMy4zMiAzLjI2OS02LjgxNy4wMThhMTcuMiAxNy4yIDAgMCAwLTQuMTctMTAuMzA0bDQuNzg1LTQuNzg1LS4wMjYgNC42NiAxLjk2OC0xLjk2OC0uMDItNi4wMzEtNi4wMjctLjAxNS0xLjk2NyAxLjk2NyA0LjY2LS4wMjYtNC43NjggNC43NjdjLTMuMDgyLTIuODMzLTcuMTc4LTQuNTgtMTEuNjg0LTQuNTgtOS41NCAwLTE3LjMgNy43NjEtMTcuMyAxNy4zczcuNzYgMTcuMyAxNy4zIDE3LjNjNC41MTkgMCA4LjYyNi0xLjc1NyAxMS43MS00LjYwNWw0Ljc5NSA0Ljc5NS00LjY1OS0uMDI2IDEuOTY3IDEuOTY4IDYuMDMyLS4wMjEuMDE1LTYuMDI1LTEuOTY4LTEuOTY5LjAyNiA0LjY2MS00LjgxNS00LjgxNWExNy4yIDE3LjIgMCAwIDAgNC4xNDUtMTAuMjVsNi44MjItLjAxOS0zLjMwNiAzLjI4NSAyLjc4My0uMDA2IDQuMjQtNC4yOXpNMjguODM0IDQ2LjQ4Yy04LjQzNiAwLTE1LjMtNi44NjQtMTUuMy0xNS4zczYuODY0LTE1LjMgMTUuMy0xNS4zIDE1LjI5OSA2Ljg2NCAxNS4yOTkgMTUuMy02Ljg2MyAxNS4zLTE1LjMgMTUuMyIvPjwvc3ZnPg==;fontFamily=Roboto;fontSource=https%3A%2F%2Ffonts.googleapis.com%2Fcss%3Ffamily%3DRoboto;" vertex="1" parent="XSCT2WYPgkQ0aujzjNFR-52">
          <mxGeometry x="10" y="9" width="62" height="62" as="geometry" />
        </mxCell>
        <mxCell id="XSCT2WYPgkQ0aujzjNFR-57" value="" style="endArrow=block;html=1;strokeWidth=3;endFill=0;fontSize=20;fontColor=#E42313;targetPerimeterSpacing=10;sourcePerimeterSpacing=10;strokeColor=#DA291C;rounded=0;fontFamily=Roboto;fontSource=https%3A%2F%2Ffonts.googleapis.com%2Fcss%3Ffamily%3DRoboto;" edge="1" parent="1" source="XSCT2WYPgkQ0aujzjNFR-53" target="XSCT2WYPgkQ0aujzjNFR-47">
          <mxGeometry width="50" height="50" relative="1" as="geometry">
            <mxPoint x="770" y="1330" as="sourcePoint" />
            <mxPoint x="860" y="1330" as="targetPoint" />
            <Array as="points" />
          </mxGeometry>
        </mxCell>
        <mxCell id="XSCT2WYPgkQ0aujzjNFR-58" value="" style="endArrow=block;html=1;strokeWidth=3;endFill=0;strokeColor=#3AAA35;fontSize=20;fontColor=#E42313;targetPerimeterSpacing=10;sourcePerimeterSpacing=10;rounded=0;fontFamily=Roboto;fontSource=https%3A%2F%2Ffonts.googleapis.com%2Fcss%3Ffamily%3DRoboto;" edge="1" parent="1" source="XSCT2WYPgkQ0aujzjNFR-53" target="XSCT2WYPgkQ0aujzjNFR-41">
          <mxGeometry width="50" height="50" relative="1" as="geometry">
            <mxPoint x="770" y="1330" as="sourcePoint" />
            <mxPoint x="860" y="1330" as="targetPoint" />
            <Array as="points" />
          </mxGeometry>
        </mxCell>
        <mxCell id="XSCT2WYPgkQ0aujzjNFR-62" value="" style="group;fontFamily=Roboto;fontSource=https%3A%2F%2Ffonts.googleapis.com%2Fcss%3Ffamily%3DRoboto;" vertex="1" connectable="0" parent="1">
          <mxGeometry x="710" y="1590" width="200" height="80" as="geometry" />
        </mxCell>
        <mxCell id="XSCT2WYPgkQ0aujzjNFR-63" value="" style="rounded=1;whiteSpace=wrap;html=1;strokeWidth=2;strokeColor=#7C7C7B;gradientDirection=south;arcSize=50;imageHeight=24;perimeterSpacing=10;fontFamily=Roboto;fontSource=https%3A%2F%2Ffonts.googleapis.com%2Fcss%3Ffamily%3DRoboto;" vertex="1" parent="XSCT2WYPgkQ0aujzjNFR-62">
          <mxGeometry width="200" height="80" as="geometry" />
        </mxCell>
        <mxCell id="XSCT2WYPgkQ0aujzjNFR-64" value="&lt;font&gt;postgresql&lt;/font&gt;" style="text;strokeColor=none;fillColor=none;align=center;verticalAlign=middle;rounded=0;sketch=0;fontFamily=Roboto;fontStyle=1;fontSize=20;spacing=0;html=1;fontSource=https%3A%2F%2Ffonts.googleapis.com%2Fcss%3Ffamily%3DRoboto;" vertex="1" parent="XSCT2WYPgkQ0aujzjNFR-62">
          <mxGeometry x="80" y="25" width="110" height="21" as="geometry" />
        </mxCell>
        <mxCell id="XSCT2WYPgkQ0aujzjNFR-65" value="" style="endArrow=none;html=1;fontSize=20;fontColor=#E42313;strokeColor=#E42313;align=center;rounded=0;fontFamily=Roboto;fontSource=https%3A%2F%2Ffonts.googleapis.com%2Fcss%3Ffamily%3DRoboto;" edge="1" parent="XSCT2WYPgkQ0aujzjNFR-62">
          <mxGeometry width="50" height="50" as="geometry">
            <mxPoint x="80" y="50.75" as="sourcePoint" />
            <mxPoint x="190" y="50.75" as="targetPoint" />
          </mxGeometry>
        </mxCell>
        <mxCell id="XSCT2WYPgkQ0aujzjNFR-66" value="" style="shape=image;verticalLabelPosition=bottom;labelBackgroundColor=default;verticalAlign=top;aspect=fixed;imageAspect=0;editableCssRules=.*;image=data:image/svg+xml,PHN2ZyB4bWxucz0iaHR0cDovL3d3dy53My5vcmcvMjAwMC9zdmciIHZpZXdCb3g9IjAgMC4wMDIwMDAwMDAwOTQ5OTQ5MDI2IDYyLjM2MTk5OTUxMTcxODc1IDYyLjM2MjAwMzMyNjQxNjAxNiIgdmVyc2lvbj0iMS4xIiBpZD0iRWJlbmVfNiIgd2lkdGg9IjYyLjM2MTk5OTUxMTcxODc1IiBoZWlnaHQ9IjYyLjM2MjAwMzMyNjQxNjAxNiI+PGRlZnM+PHN0eWxlPi5zdDB7ZmlsbDojZmZmfTwvc3R5bGU+PC9kZWZzPjxwYXRoIHN0eWxlPSJmaWxsOiNkYTI5MWMiIGQ9Ik0zMS4zMTUgNjIuMzY0QzEzLjQ4MyA2Mi4zNjQgMCA0Ny41OTIgMCAzMS4zMTYgMCAxMi42MzUgMTUuNTU3LjAwMiAzMS4wOC4wMDJjMTguNjAyIDAgMzEuMjgyIDE1LjM0IDMxLjI4MiAzMC45NDcgMCAxOS4wNS0xNS42NTcgMzEuNDE1LTMxLjA0NyAzMS40MTUiIGlkPSJIaW50ZXJncnVuZCIvPjxnIGlkPSJJQ09OIj48cGF0aCBjbGFzcz0ic3QwIiBkPSJNNDAuNjA2IDE1LjU3NmMuNjM4IDAgMS4xNjYuMjk4IDEuNjI0LjkwNWE5MCA5MCAwIDAgMSAzLjE2NCA0LjQ3MWMuNjQuOTY2LjgwMyAxLjg3Ny41IDIuNzg0LTEuMDYgMy4xNjUtMy4yMDQgNS43MjUtNi4zNzUgNy42MDlhMSAxIDAgMCAwLS40NTguNjEzIDEgMSAwIDAgMCAuMTA5Ljc1OGMuMjcxLjQ1NS45MS42MjIgMS4zNy4zNDggMy41OTUtMi4xMzYgNi4wMzQtNS4wNjEgNy4yNTEtOC42OTQuNDk3LTEuNDg3LjI0NC0zLjA1LS43My00LjUyM2E5MiA5MiAwIDAgMC0zLjIzNi00LjU3Yy0xLjIwNy0xLjYwMS0zLjAwOC0yLjA5Ni00Ljk0NC0xLjM1N2wtLjI0My4wODhhNyA3IDAgMCAwLS44NTcuMzU5Yy0xLjEyLjU5My0yLjI1NS42OTQtMy45MTUuMzUxLTIuNzUtLjU2OC01LjM1Ny0uNTA3LTcuNzQ0LjE4My0uMTc0LjA0OS0uNTY4LjEwMi0xLjI5LS4wODZhMjYgMjYgMCAwIDEtMS42MjMtLjVjLS43NjUtLjI1My0xLjQ5LS40OTMtMi4yNDQtLjY2NC0xLjIzLS4yOC0yLjQ0LjIzNS0zLjMyIDEuNDA2bC0uOTA1IDEuMTk3Yy0uODQ1IDEuMTEyLTEuNzE4IDIuMjYyLTIuNTQ0IDMuNDUxLTEuMDc4IDEuNTUzLTEuMjk2IDMuMzQzLS42MyA1LjE3NiAxLjA4NyAyLjk4OCAzLjE2OCA1LjU2OCA2LjM2MiA3Ljg4N2EuOTguOTggMCAwIDAgLjc0NC4xNzggMSAxIDAgMCAwIC42NTMtLjQgMSAxIDAgMCAwIC4xNzgtLjc0NSAxIDEgMCAwIDAtLjQtLjY1MmMtMi45LTIuMTA1LTQuNjk4LTQuMzE0LTUuNjU3LTYuOTUyLS40NDctMS4yMy0uMzE4LTIuMzI2LjM5Mi0zLjM1MS43OTgtMS4xNDkgMS42NTctMi4yNzkgMi40ODYtMy4zNzFsLjkyLTEuMjE3Yy40MDItLjUzNi44MTYtLjc1NCAxLjI2OC0uNjU5LjY2My4xNSAxLjMwMy4zNjIgMS45ODEuNTg3LjYyMi4yMDYgMS4yMjMuNDA2IDEuODM2LjU2NS45MS4yMzUgMS43MDIuMjYgMi4zNDkuMDcxIDIuMDczLS42IDQuMzU1LS42NDggNi43ODUtLjE0NSAxLjQxNy4yOTIgMy4yOTUuNDk2IDUuMjUyLS41NDEuMTctLjA5LjM1Mi0uMTU2LjUzNC0uMjIybC4zNDctLjEyN3EuNTQ2LS4yMSAxLjAxLS4yMVoiLz48cGF0aCBjbGFzcz0ic3QwIiBkPSJNMjUuNCA0MC42MzRjLS41OSAwLTEuMDEzLjE1OC0xLjMyMS40NzgtLjQzMi40NS0uNTAzIDEuMDYtLjIxNiAxLjg3Mi4wNjQuMjc4LjIyMi43MDMuNjc5IDEuNDAzLjk0NyAxLjQ0NiAyLjQ5IDIuMzI1IDQuMTMgMi4zNTFoLjA3MWMxLjUzOCAwIDIuOTYtLjc3NCAzLjkwNC0yLjEyNC41NjctLjgxLjk3MS0yLjggMS41MTktNi4xOS4wODUtLjUzLjE1Ni0uOTY5LjIwNy0xLjIzNC4wOTItLjQ2NC40Ni0uODg4LjgxNy0xLjI5Ny4xODktLjIyLjM2Ny0uNDI2LjUwNy0uNjI3bC4wOC0uMTM0Yy4zOTktLjc3LjY2NC0xLjUyMi44LTIuMjc4LjA3MS0uMzg3LjA2OS0uNzY4LjA2Ni0xLjEwNGE5IDkgMCAwIDEgLjAxNC0uNzI1bC4wMS0uMTJjLjAwMy0uMDE1LjI1OS0xLjQxMi44NzgtMi40NCAxLjI1LTIuMDY5IDEuMjgyLTMuNTcxIDEuMTktNC4yODNsLS4wMi0uMTUzLjA5My0uMTIyYTEgMSAwIDAgMCAuMTUxLS45MjEgMS4wMDcgMS4wMDcgMCAwIDAtMS4yNjYtLjYzMSAxLjUyNiAxLjUyNiAwIDAgMC0uOTc0IDEuOTE4Yy4wMTguMDYyLjMxNCAxLjE3MS0uODg2IDMuMTU3LS44MzQgMS4zODItMS4xNDcgMy4xNDgtMS4xNjYgMy4zNjZsLS4wMTguMjExYy0uMDEuMjc4LS4wMDguNTIzLS4wMDYuNzUzdi4xMTlhMyAzIDAgMCAxLS4wMzUuNjE5IDYgNiAwIDAgMS0uNTcyIDEuNjQ0Yy0uMTEuMTU0LS4xOTcuMjU1LS4yODkuMzZsLS4wNjcuMDc5Yy0uNDU1LjUyNC0xLjA3NCAxLjIzNi0xLjI2OCAyLjIyLS4wNTUuMjgxLS4xMy43NDMtLjIyIDEuMzA0LS41MjggMy4yNTgtLjg3NyA0Ljg1NS0xLjE3IDUuMzQxLS43NDIgMS4wNjMtMS42NjUgMS4yODctMi4zMSAxLjI5Mi0uOTEtLjAxNC0xLjc2Ny0uNDctMi4zNTgtMS4yNWwtLjY4Ny0uOTA4IDEuMDkxLjMyMWMuMTY3LjA1LjM1Mi4xMDUuNTU4LjE3NC41NDMuMTc2IDEuMTEuMDMzIDEuNTItLjM4IDEuMTQtMS4xNTQgMS4wMy00LjgwNi43NzctNS41NDYtLjQ4Mi0xLjQwNy0uOTQxLTEuOTQtMS41NzYtMi42NzZhMjMgMjMgMCAwIDEtLjYwNy0uNzIyYy0uNDY5LS41NzMtLjQ5NC0xLjI1OC0uNTI0LTIuMDUyLS4wMTYtLjQ0OS0uMDMyLS45MDQtLjEzNy0xLjM0OWwtLjAyNy0uMTUyYTcuNSA3LjUgMCAwIDAtMS4wMDYtMi43NjljLTEuMDkyLTEuODA1LS45NDMtMi44OS0uOTAyLTMuMDkuMjc5LS44NDctLjE1Ni0xLjcxNy0uOTU5LTEuOTg1YS45OC45OCAwIDAgMC0uNzYyLjA1MiAxIDEgMCAwIDAtLjM1MSAxLjVsLjA5My4xMjMtLjAyLjE1MmMtLjA5Mi43MTItLjA2IDIuMjE1IDEuMTkgNC4yODMuNTAyLjgzLjY4NCAxLjYwMi43NSAyLjEwM2wuMDQuMjE0Yy4wNjUuMjMxLjA3OC41OTIuMDkyLjk3NC4wMzYuOTc1LjA3OSAyLjE2OS45NyAzLjI1Ni4yMzYuMjk0LjQ0Mi41MzIuNjI1Ljc0NS41OTcuNjkyLjg2MS45OTggMS4yMDMgMS45ODguMTMyLjU4My4wODQgMi4wNTItLjA4MyAyLjlsLS4wNzguMzk4LS4zOS0uMTFjLS43MS0uMTk5LTEuMjg1LS4yOTktMS43NTQtLjI5OVoiLz48L2c+PHBhdGggY2xhc3M9InN0MCIgZD0iTTUxLjg4IDM4LjQ5Yy0uMTMtMS45My0zLjQ4LTIuOTgtNi42NS0yLjk4LTMuMTYgMC02LjUxIDEuMDUtNi42NCAyLjk4LS4wMS4wNC0uMDEuMDgtLjAxLjEydjEwLjE4YzAgMi4wMSAzLjQzIDMuMSA2LjY1IDMuMSAzLjIzIDAgNi42Ni0xLjA5IDYuNjYtMy4xVjM4LjYxYzAtLjA0IDAtLjA4LS4wMS0uMTJtLTEuMjQgMTAuM2MwIC43NS0yLjExIDEuODUtNS40MSAxLjg1cy01LjQtMS4xLTUuNC0xLjg1di0xLjQzYy45Ny41NCAyLjY2IDEuMTMgNS40IDEuMTMgMi43NyAwIDQuNDUtLjU4IDUuNDEtMS4xMnptMC0yLjk0Yy0uNDIuMzYtMS45IDEuMzktNS40MSAxLjM5LTMuNDggMC00Ljk3LTEuMDEtNS40LTEuMzh2LTEuODljLjk3LjU0IDIuNjYgMS4xMyA1LjQgMS4xMyAyLjc3IDAgNC40NS0uNTggNS40MS0xLjEyem0wLTMuMzljLS40Mi4zNi0xLjkgMS4zOS01LjQxIDEuMzktMy40OCAwLTQuOTctMS4wMS01LjQtMS4zOHYtMmMxLjI4LjgyIDMuMzggMS4yNSA1LjQgMS4yNXM0LjEzLS40MyA1LjQxLTEuMjV6bS01LjQxLTEuOTljLTMuMyAwLTUuNC0xLjEtNS40LTEuODYgMC0uNzUgMi4xLTEuODUgNS40LTEuODVzNS40MSAxLjEgNS40MSAxLjg1YzAgLjc2LTIuMTEgMS44Ni01LjQxIDEuODYiIGlkPSJUb25uZSIvPjwvc3ZnPg==;fontFamily=Roboto;fontSource=https%3A%2F%2Ffonts.googleapis.com%2Fcss%3Ffamily%3DRoboto;" vertex="1" parent="XSCT2WYPgkQ0aujzjNFR-62">
          <mxGeometry x="10" y="9" width="62" height="62" as="geometry" />
        </mxCell>
        <mxCell id="XSCT2WYPgkQ0aujzjNFR-67" value="" style="endArrow=block;html=1;strokeWidth=3;endFill=0;fontSize=20;fontColor=#E42313;targetPerimeterSpacing=10;sourcePerimeterSpacing=10;strokeColor=#7C7C7B;dashed=1;rounded=0;fontFamily=Roboto;fontSource=https%3A%2F%2Ffonts.googleapis.com%2Fcss%3Ffamily%3DRoboto;" edge="1" parent="1" source="XSCT2WYPgkQ0aujzjNFR-47" target="XSCT2WYPgkQ0aujzjNFR-63">
          <mxGeometry width="50" height="50" relative="1" as="geometry">
            <mxPoint x="770" y="1330" as="sourcePoint" />
            <mxPoint x="860" y="1330" as="targetPoint" />
            <Array as="points" />
          </mxGeometry>
        </mxCell>
        <mxCell id="XSCT2WYPgkQ0aujzjNFR-68" value="" style="endArrow=block;html=1;strokeWidth=3;endFill=0;fontSize=20;fontColor=#E42313;targetPerimeterSpacing=10;sourcePerimeterSpacing=10;strokeColor=#7C7C7B;dashed=1;rounded=0;fontFamily=Roboto;fontSource=https%3A%2F%2Ffonts.googleapis.com%2Fcss%3Ffamily%3DRoboto;" edge="1" parent="1" source="XSCT2WYPgkQ0aujzjNFR-41" target="XSCT2WYPgkQ0aujzjNFR-63">
          <mxGeometry width="50" height="50" relative="1" as="geometry">
            <mxPoint x="690" y="1510" as="sourcePoint" />
            <mxPoint x="760" y="1580" as="targetPoint" />
            <Array as="points" />
          </mxGeometry>
        </mxCell>
        <mxCell id="XSCT2WYPgkQ0aujzjNFR-69" value="" style="shape=image;verticalLabelPosition=bottom;verticalAlign=top;imageAspect=0;aspect=fixed;image=data:image/svg+xml,PHN2ZyB4bWxucz0iaHR0cDovL3d3dy53My5vcmcvMjAwMC9zdmciIHZpZXdCb3g9IjAgMCA2Mi4zNjE5OTk1MTE3MTg3NSA2Mi4zNjE5OTk1MTE3MTg3NSIgd2lkdGg9IjYyLjM2MTk5OTUxMTcxODc1IiBoZWlnaHQ9IjYyLjM2MTk5OTUxMTcxODc1Ij48cGF0aCBzdHlsZT0iZmlsbDojZGEyOTFjIiBkPSJNMzEuMzE1IDYyLjM2MkMxMy40ODMgNjIuMzYyIDAgNDcuNTkgMCAzMS4zMTUgMCAxMi42MzMgMTUuNTU3IDAgMzEuMDggMGMxOC42MDIgMCAzMS4yODIgMTUuMzQgMzEuMjgyIDMwLjk0NyAwIDE5LjA1LTE1LjY1NyAzMS40MTUtMzEuMDQ3IDMxLjQxNSIvPjxwYXRoIHN0eWxlPSJmaWxsOiNmZmYiIGQ9Ik0zOS42NTQgNDIuOTJIMTYuMTIyYTEgMSAwIDAgMS0xLTFjMC01LjE2NiAzLjE4Ni05LjgwNSA3LjgzMi0xMS43NjZhNy42NSA3LjY1IDAgMCAxLTIuNzM2LTUuODc1YzAtMi4wNy44MTItNC4wMSAyLjI4Ni01LjQ2M1MyNS45MjIgMTYuNTY4IDI4IDE2LjYxYzQuMDkuMDYgNy40OCAzLjQzNiA3LjU1NiA3LjUyNmE3LjYzIDcuNjMgMCAwIDEtMi43MzMgNi4wMmM0LjY0NiAxLjk2MiA3LjgzIDYuNiA3LjgzIDExLjc2NWExIDEgMCAwIDEtMSAxbS0yMi4xNjgtMkgzOC4yOWMuMTY4IDAgLjMwMy0uMTUuMjgyLS4zMTYtLjU1Ny00LjQ0Ni0zLjg5Ni04LjIwMS04LjM0Ny05LjE4N2ExIDEgMCAwIDEtLjE2OC0xLjljLjcyNi0uMzAyIDEuNC0uNzM2IDEuOTE4LTEuMzI3IDMuNzEyLTQuMjQxLjI4Ny05LjUxOS00LjAwMy05LjU4YTUuNjUgNS42NSAwIDAgMC00LjA2NSAxLjYzYy0xLjgzNiAxLjgxLTIuMjgyIDQuNjQzLS44MDkgNy4yMzUuNTY3Ljk5OCAxLjU4MyAxLjU5IDIuNjM1IDIuMDQ5YTEgMSAwIDAgMS0uMTgzIDEuODkzYy00LjQ1Ljk4Ni03Ljc4OSA0Ljc0MS04LjM0NiA5LjE4N2EuMjg1LjI4NSAwIDAgMCAuMjgyLjMxNlptMjkuMTMtMi45NThoLTIuNzE5YS42MjYuNjI2IDAgMCAxIDAtMS4yNWgxLjc0MWMuMTcxIDAgLjMxLS4xNTMuMjg2LS4zMjItLjM5NS0yLjc4Mi0yLjUwMS01LjExOC01LjI5Ni01LjczOGEuNjI2LjYyNiAwIDAgMS0uMTA1LTEuMTg3IDMuNjEgMy42MSAwIDAgMCAyLjIzLTMuMzM5IDMuNjE4IDMuNjE4IDAgMCAwLTQuMjE0LTMuNTYyLjYyNS42MjUgMCAwIDEtLjIxNS0xLjIzMSA0Ljg3IDQuODcgMCAwIDEgNS42OCA0Ljc5NCA0Ljg1IDQuODUgMCAwIDEtMS43NSAzLjczNmMyLjk2NSAxLjI0NCA0Ljk5NyA0LjIwNSA0Ljk4NyA3LjQ5OS0uMDAxLjMzNS0uMjkuNi0uNjI1LjYiLz48L3N2Zz4=" vertex="1" parent="1">
          <mxGeometry x="790" y="910" width="62" height="62" as="geometry" />
        </mxCell>
        <mxCell id="XSCT2WYPgkQ0aujzjNFR-70" value="" style="shape=image;verticalLabelPosition=bottom;verticalAlign=top;imageAspect=0;aspect=fixed;image=data:image/svg+xml,PHN2ZyB4bWxucz0iaHR0cDovL3d3dy53My5vcmcvMjAwMC9zdmciIHZpZXdCb3g9IjAgMCAzOS43NjcyMDA0Njk5NzA3IDM4LjIyODAwMDY0MDg2OTE0IiB3aWR0aD0iMzkuNzY3MjAwNDY5OTcwNyIgaGVpZ2h0PSIzOC4yMjgwMDA2NDA4NjkxNCI+PGRlZnM+PHN0eWxlPi5jbHMtMXtmaWxsOm5vbmU7fTwvc3R5bGU+PC9kZWZzPjxnIGlkPSJFYmVuZV8yIiBkYXRhLW5hbWU9IkViZW5lIDIiPjxwYXRoIGQ9Ik00OS40OTIyLDQ1LjI0OHYtLjAwMDlsLTMuNDg1NC05Ljg2OTJBNS4wODQ2LDUuMDg0NiwwLDAsMCw0NC4wNDEsMzIuODVhMi42NjMsMi42NjMsMCwwLDAsLjk4NDQtMi4wNTcyVjE2LjE2MzZhMi42ODIsMi42ODIsMCwwLDAtMi42Nzg3LTIuNjc4N0gyMC4wMTQ2YTIuNjgxNywyLjY4MTcsMCwwLDAtMi42Nzg3LDIuNjc4N1YzMC43OTNBMi42NjI5LDIuNjYyOSwwLDAsMCwxOC4zMiwzMi44NSw1LjA5LDUuMDksMCwwLDAsMTYuMzUzLDM1LjM3N2wtMy40ODM5LDkuODcxYTIuNzI0MSwyLjcyNDEsMCwwLDAsMi41Njg5LDMuNjI5SDQ2LjkyMzhhMi43MjQ0LDIuNzI0NCwwLDAsMCwyLjU2ODQtMy42MjlaTTIwLjAxNDYsMzEuOTcxN2ExLjE4LDEuMTgsMCwwLDEtMS4xNzg3LTEuMTc4N1YxNi4xNjM2YTEuMTgsMS4xOCwwLDAsMSwxLjE3ODctMS4xNzg3SDQyLjM0NjdhMS4xOCwxLjE4LDAsMCwxLDEuMTc4NywxLjE3ODdWMzAuNzkzYTEuMTgsMS4xOCwwLDAsMS0xLjE3ODcsMS4xNzg3SDIwLjAxNDZaTTI2LjgzLDQ3LjM3N2wuODc4OS0yLjYzNjhhLjcwNzMuNzA3MywwLDAsMSwuNjcyNC0uNDg0M2g1LjZhLjcwNTcuNzA1NywwLDAsMSwuNjcxOC40ODQzbC44OCwyLjYzNjhabTIwLjUwMTUtLjA2OTRhMS4yMzUzLDEuMjM1MywwLDAsMS0uNDA3My4wNjk0aC05LjgxbC0xLjAzNzktMy4xMTE0YTIuMjA0NywyLjIwNDcsMCwwLDAtMi4wOTU3LTEuNTFoLTUuNmEyLjIwNDEsMi4yMDQxLDAsMCwwLTIuMDk1MywxLjUxTDI1LjI0ODUsNDcuMzc3aC05LjgxYTEuMjIzOSwxLjIyMzksMCwwLDEtMS4xNTQzLTEuNjNsMy40ODM0LTkuODdhMy42MTE2LDMuNjExNiwwLDAsMSwzLjQtMi40MDUzSDQxLjE5NDNhMy42MDY2LDMuNjA2NiwwLDAsMSwzLjM5ODUsMi40MDUzbDMuNDg1Myw5Ljg2OTFBMS4yMjY2LDEuMjI2NiwwLDAsMSw0Ny4zMzExLDQ3LjMwNzZaIiB0cmFuc2Zvcm09InRyYW5zbGF0ZSgtMTEuMjk3MSAtMTIuMDY2OSkiLz48cGF0aCBkPSJNMjIuNywzNi41OTM4SDIxLjE2YS43NS43NSwwLDAsMCwwLDEuNUgyMi43YS43NS43NSwwLDAsMCwwLTEuNVoiIHRyYW5zZm9ybT0idHJhbnNsYXRlKC0xMS4yOTcxIC0xMi4wNjY5KSIvPjxwYXRoIGQ9Ik0yNS43ODEyLDM4LjA5MzhoMS41NDA2YS43NS43NSwwLDAsMCwwLTEuNUgyNS43ODEyYS43NS43NSwwLDAsMCwwLDEuNVoiIHRyYW5zZm9ybT0idHJhbnNsYXRlKC0xMS4yOTcxIC0xMi4wNjY5KSIvPjxwYXRoIGQ9Ik0zNS4wMjQ0LDM4LjA5MzhoMS41NDFhLjc1Ljc1LDAsMCwwLDAtMS41aC0xLjU0MWEuNzUuNzUsMCwwLDAsMCwxLjVaIiB0cmFuc2Zvcm09InRyYW5zbGF0ZSgtMTEuMjk3MSAtMTIuMDY2OSkiLz48cGF0aCBkPSJNNDEuOTM2NSwzNy4zNDM4YS43NS43NSwwLDAsMC0uNzUtLjc1aC0xLjU0YS43NS43NSwwLDAsMCwwLDEuNWgxLjU0QS43NS43NSwwLDAsMCw0MS45MzY1LDM3LjM0MzhaIiB0cmFuc2Zvcm09InRyYW5zbGF0ZSgtMTEuMjk3MSAtMTIuMDY2OSkiLz48cGF0aCBkPSJNMzAuNDAyOCwzOC4wOTM4aDEuNTQwNmEuNzUuNzUsMCwwLDAsMC0xLjVIMzAuNDAyOGEuNzUuNzUsMCwwLDAsMCwxLjVaIiB0cmFuc2Zvcm09InRyYW5zbGF0ZSgtMTEuMjk3MSAtMTIuMDY2OSkiLz48cGF0aCBkPSJNMjEuMTYsMzkuNjc0OEgxOS42MTkxYS43NS43NSwwLDEsMCwwLDEuNUgyMS4xNmEuNzUuNzUsMCwwLDAsMC0xLjVaIiB0cmFuc2Zvcm09InRyYW5zbGF0ZSgtMTEuMjk3MSAtMTIuMDY2OSkiLz48cGF0aCBkPSJNMzguMTA1NSwzOS42NzQ4SDI0LjI0MDdhLjc1Ljc1LDAsMSwwLDAsMS41SDM4LjEwNTVhLjc1Ljc1LDAsMCwwLDAtMS41WiIgdHJhbnNmb3JtPSJ0cmFuc2xhdGUoLTExLjI5NzEgLTEyLjA2NjkpIi8+PHBhdGggZD0iTTQyLjcyNzUsMzkuNjc0OGgtMS41NDFhLjc1Ljc1LDAsMCwwLDAsMS41aDEuNTQxYS43NS43NSwwLDAsMCwwLTEuNVoiIHRyYW5zZm9ybT0idHJhbnNsYXRlKC0xMS4yOTcxIC0xMi4wNjY5KSIvPjwvZz48ZyBpZD0iRWJlbmVfNCIgZGF0YS1uYW1lPSJFYmVuZSA0Ij48cmVjdCBjbGFzcz0iY2xzLTEiIHdpZHRoPSIzOS43NjcyIiBoZWlnaHQ9IjM4LjIyOCIvPjwvZz48L3N2Zz4=" vertex="1" parent="1">
          <mxGeometry x="858" y="911.5500000000001" width="62" height="58.9" as="geometry" />
        </mxCell>
        <mxCell id="XSCT2WYPgkQ0aujzjNFR-71" value="" style="endArrow=block;html=1;strokeWidth=3;endFill=0;fontSize=20;fontColor=#E42313;targetPerimeterSpacing=10;sourcePerimeterSpacing=10;strokeColor=#7C7C7B;dashed=1;rounded=0;fontFamily=Roboto;fontSource=https%3A%2F%2Ffonts.googleapis.com%2Fcss%3Ffamily%3DRoboto;" edge="1" parent="1" source="XSCT2WYPgkQ0aujzjNFR-77">
          <mxGeometry width="50" height="50" relative="1" as="geometry">
            <mxPoint x="770" y="1330" as="sourcePoint" />
            <mxPoint x="820" y="1200" as="targetPoint" />
            <Array as="points" />
          </mxGeometry>
        </mxCell>
        <mxCell id="XSCT2WYPgkQ0aujzjNFR-72" value="" style="shape=image;verticalLabelPosition=bottom;verticalAlign=top;imageAspect=0;aspect=fixed;image=data:image/svg+xml,PHN2ZyB4bWxucz0iaHR0cDovL3d3dy53My5vcmcvMjAwMC9zdmciIHZpZXdCb3g9IjAgMCA0NS40NTA2OTg4NTI1MzkwNiAzNC4zNjQzOTg5NTYyOTg4MyIgd2lkdGg9IjQ1LjQ1MDY5ODg1MjUzOTA2IiBoZWlnaHQ9IjM0LjM2NDM5ODk1NjI5ODgzIj48ZGVmcz48c3R5bGU+LmNscy0xe2ZpbGw6bm9uZTt9PC9zdHlsZT48L2RlZnM+PGcgaWQ9IkViZW5lXzIiIGRhdGEtbmFtZT0iRWJlbmUgMiI+PHBhdGggZD0iTTIwLjgwOTEsMzMuMTA5NGExLjEwNjIsMS4xMDYyLDAsMSwwLTEuMTA2NS0xLjEwNjVBMS4xMDczLDEuMTA3MywwLDAsMCwyMC44MDkxLDMzLjEwOTRaIiB0cmFuc2Zvcm09InRyYW5zbGF0ZSgtOC40MTE0IC0xMi43Mjg5KSIvPjxwYXRoIGQ9Ik0yNS43OTQ5LDMzLjEwOTRhMS4xMDYyLDEuMTA2MiwwLDEsMC0xLjEwNjQtMS4xMDY1QTEuMTA3MywxLjEwNzMsMCwwLDAsMjUuNzk0OSwzMy4xMDk0WiIgdHJhbnNmb3JtPSJ0cmFuc2xhdGUoLTguNDExNCAtMTIuNzI4OSkiLz48cGF0aCBkPSJNNDQuNjY4OSwxOC40MzI2SDE3LjYwNGEzLjYwMzQsMy42MDM0LDAsMCwwLTMuNTk5MSwzLjU5OTF2Mi44NDkyQTMuNTgyMywzLjU4MjMsMCwwLDAsMTUuNDMsMjcuNzNhMy41ODI5LDMuNTgyOSwwLDAsMC0xLjQyNTMsMi44NDl2Mi44NDkxQTMuNTgyMiwzLjU4MjIsMCwwLDAsMTUuNDMsMzYuMjc2NmEzLjU4MzMsMy41ODMzLDAsMCwwLTEuNDI1NSwyLjg0OTR2Mi44NDg2YTMuNjAyOSwzLjYwMjksMCwwLDAsMy41OTkxLDMuNTk4Nkg0NC42Njg5YTMuNjAzNSwzLjYwMzUsMCwwLDAsMy42LTMuNTk4NlYzOS4xMjZhMy41ODMyLDMuNTgzMiwwLDAsMC0xLjQyNTgtMi44NDk0LDMuNTgyMSwzLjU4MjEsMCwwLDAsMS40MjU4LTIuODQ4OVYzMC41Nzg2QTMuNTgyNiwzLjU4MjYsMCwwLDAsNDYuODQzLDI3LjczYTMuNTgyLDMuNTgyLDAsMCwwLDEuNDI1Ni0yLjg0ODdWMjIuMDMxN0EzLjYwMzksMy42MDM5LDAsMCwwLDQ0LjY2ODksMTguNDMyNlptMi4xLDIwLjY5MzR2Mi44NDg2YTIuMTAxMiwyLjEwMTIsMCwwLDEtMi4xLDIuMDk4NkgxNy42MDRhMi4xMDE0LDIuMTAxNCwwLDAsMS0yLjA5OTEtMi4wOTg2VjM5LjEyNmEyLjEwMTYsMi4xMDE2LDAsMCwxLDIuMDk5MS0yLjFINDQuNjY4OUEyLjEwMTUsMi4xMDE1LDAsMCwxLDQ2Ljc2ODYsMzkuMTI2Wm0wLTguNTQ3NHYyLjg0OTFhMi4xMDEzLDIuMTAxMywwLDAsMS0yLjEsMi4wOTg3SDE3LjYwNGEyLjEwMTQsMi4xMDE0LDAsMCwxLTIuMDk5MS0yLjA5ODdWMzAuNTc4NkEyLjEwMTgsMi4xMDE4LDAsMCwxLDE3LjYwNCwyOC40OEg0NC42Njg5QTIuMTAxNywyLjEwMTcsMCwwLDEsNDYuNzY4NiwzMC41Nzg2Wk0xNy42MDQsMjYuOThhMi4xMDE0LDIuMTAxNCwwLDAsMS0yLjA5OTEtMi4wOTg2VjIyLjAzMTdhMi4xMDE4LDIuMTAxOCwwLDAsMSwyLjA5OTEtMi4wOTkxSDQ0LjY2ODlhMi4xMDE3LDIuMTAxNywwLDAsMSwyLjEsMi4wOTkxdjIuODQ5MmEyLjEwMTIsMi4xMDEyLDAsMCwxLTIuMSwyLjA5ODZaIiB0cmFuc2Zvcm09InRyYW5zbGF0ZSgtOC40MTE0IC0xMi43Mjg5KSIvPjxwYXRoIGQ9Ik0yMC44MDkxLDIyLjM1YTEuMTA2MiwxLjEwNjIsMCwxLDAsMS4xMDU5LDEuMTA2QTEuMTA3NiwxLjEwNzYsMCwwLDAsMjAuODA5MSwyMi4zNVoiIHRyYW5zZm9ybT0idHJhbnNsYXRlKC04LjQxMTQgLTEyLjcyODkpIi8+PHBhdGggZD0iTTI1Ljc5NDksMjIuMzVhMS4xMDYyLDEuMTA2MiwwLDEsMCwxLjEwNiwxLjEwNkExLjEwNzYsMS4xMDc2LDAsMCwwLDI1Ljc5NDksMjIuMzVaIiB0cmFuc2Zvcm09InRyYW5zbGF0ZSgtOC40MTE0IC0xMi43Mjg5KSIvPjxwYXRoIGQ9Ik0yMC44MDkxLDQxLjY1NjJBMS4xMDYsMS4xMDYsMCwxLDAsMTkuNzAyNiw0MC41NSwxLjEwNzIsMS4xMDcyLDAsMCwwLDIwLjgwOTEsNDEuNjU2MloiIHRyYW5zZm9ybT0idHJhbnNsYXRlKC04LjQxMTQgLTEyLjcyODkpIi8+PHBhdGggZD0iTTI1Ljc5NDksNDEuNjU2MkExLjEwNiwxLjEwNiwwLDEsMCwyNC42ODg1LDQwLjU1LDEuMTA3MiwxLjEwNzIsMCwwLDAsMjUuNzk0OSw0MS42NTYyWiIgdHJhbnNmb3JtPSJ0cmFuc2xhdGUoLTguNDExNCAtMTIuNzI4OSkiLz48cGF0aCBkPSJNNDYuNzQyMiwxNC4xNDY1SDE1LjUzMDhhNS43MDksNS43MDksMCwwLDAtNS43MDI3LDUuNzAyNlY0NC45MjU4YS43NS43NSwwLDAsMCwxLjUsMFYxOS44NDkxYTQuMjA3Myw0LjIwNzMsMCwwLDEsNC4yMDI3LTQuMjAyNkg0Ni43NDIyYTQuMjA3Nyw0LjIwNzcsMCwwLDEsNC4yMDMxLDQuMjAyNlY0NC45MjU4YS43NS43NSwwLDEsMCwxLjUsMFYxOS44NDkxQTUuNzA5NCw1LjcwOTQsMCwwLDAsNDYuNzQyMiwxNC4xNDY1WiIgdHJhbnNmb3JtPSJ0cmFuc2xhdGUoLTguNDExNCAtMTIuNzI4OSkiLz48L2c+PGcgaWQ9IkViZW5lXzQiIGRhdGEtbmFtZT0iRWJlbmUgNCI+PHJlY3QgY2xhc3M9ImNscy0xIiB3aWR0aD0iNDUuNDUwNyIgaGVpZ2h0PSIzNC4zNjQ0Ii8+PC9nPjwvc3ZnPg==" vertex="1" parent="1">
          <mxGeometry x="778.2" y="1412.5" width="72.8" height="55" as="geometry" />
        </mxCell>
        <mxCell id="XSCT2WYPgkQ0aujzjNFR-74" value="" style="shape=image;verticalLabelPosition=bottom;verticalAlign=top;imageAspect=0;aspect=fixed;image=data:image/svg+xml,PHN2ZyB4bWxucz0iaHR0cDovL3d3dy53My5vcmcvMjAwMC9zdmciIHZpZXdCb3g9IjAgMCA0MS4xODQ2MDA4MzAwNzgxMjUgNDEuMTg0NjAwODMwMDc4MTI1IiB3aWR0aD0iNDEuMTg0NjAwODMwMDc4MTI1IiBoZWlnaHQ9IjQxLjE4NDYwMDgzMDA3ODEyNSI+PGRlZnM+PHN0eWxlPi5jbHMtMXtmaWxsOm5vbmU7fTwvc3R5bGU+PC9kZWZzPjxnIGlkPSJFYmVuZV8yIiBkYXRhLW5hbWU9IkViZW5lIDIiPjxwYXRoIGQ9Ik01MC4zNTYxLDE1LjM4NThjLS4wMDMtMS45MjY0LTIuNTg3Ni0zLjM3OS02LjAxNDMtMy4zNzlzLTYuMDExMywxLjQ1MjYtNi4wMTQzLDMuMzc5bDAsLjAwMTR2OC43NzM5YTIuMTE0NSwyLjExNDUsMCwwLDAsLjA1ODIuNDY2MmwtNy4yLDUuNTk1NEwyMy45NzgsMjQuNjIxM2EyLjExNTQsMi4xMTU0LDAsMCwwLC4wNTY3LS40NlYxNS4zODcybDAtLjAwMTRjLS4wMDMxLTEuOTI2NC0yLjU4NzctMy4zNzktNi4wMTQ0LTMuMzc5cy02LjAxMDgsMS40NTI2LTYuMDEzOCwzLjM3OWwwLC4wMDE0djguNzczOWMwLDEuOTI4MywyLjU4NTQsMy4zODI0LDYuMDE0MSwzLjM4MjRBNy42Mzg0LDcuNjM4NCwwLDAsMCwyMy4yMDM3LDI1LjkybDYuNzYsNS4yNTI3LTYuNzcsNS4yNjA5YTcuNjU3LDcuNjU3LDAsMCwwLTUuMTczNi0xLjYxNGMtMy40MjY3LDAtNi4wMTA4LDEuNDUyNi02LjAxMzgsMy4zNzg1bDAsLjAwMTR2OC43NzQ0YzAsMS45Mjc4LDIuNTg1NCwzLjM4MTksNi4wMTQxLDMuMzgxOXM2LjAxNDctMS40NTQxLDYuMDE0Ny0zLjM4MTlWMzguMTk5MmwwLS4wMDE0YTIuMTEyMiwyLjExMjIsMCwwLDAtLjA2LS40NzE4bDcuMjExMi01LjYwNCw3LjIwMzksNS41OThhMi4xMDcxLDIuMTA3MSwwLDAsMC0uMDYxNy40Nzc4bDAsLjAwMTR2OC43NzQ0YzAsMS45Mjc4LDIuNTg2LDMuMzgxOSw2LjAxNDcsMy4zODE5czYuMDE0Ni0xLjQ1NDEsNi4wMTQ2LTMuMzgxOVYzOC4xOTkybDAtLjAwMTRjLS4wMDMtMS45MjU5LTIuNTg3Ni0zLjM3ODUtNi4wMTQzLTMuMzc4NWE3LjY2MjIsNy42NjIyLDAsMCwwLTUuMTcsMS42MTA1bC02Ljc2NDctNS4yNTc0LDYuNzU0Ni01LjI0OTFhNy42NDQ3LDcuNjQ0NywwLDAsMCw1LjE4LDEuNjJjMy40Mjg3LDAsNi4wMTQ2LTEuNDU0MSw2LjAxNDYtMy4zODI0VjE1LjM4NzJabS0zNi44NSwyLjI4QTguNjE2LDguNjE2LDAsMCwwLDE4LjAyLDE4Ljc3MWE4LjYxNjYsOC42MTY2LDAsMCwwLDQuNTE0Ny0xLjEwNTd2Mi4xMDg2YzAsLjc2NzYtMS43NTg4LDEuODgyMy00LjUxNDcsMS44ODIzcy00LjUxNDEtMS4xMTQ3LTQuNTE0MS0xLjg4MjNaTTE4LjAyLDEzLjUwNjhjMi43OTc0LDAsNC41MTQ3LDEuMDk2Miw0LjUxNDcsMS44ODI0UzIwLjgxNzQsMTcuMjcxLDE4LjAyLDE3LjI3MXMtNC41MTQxLTEuMDk2Mi00LjUxNDEtMS44ODE4UzE1LjIyMzEsMTMuNTA2OCwxOC4wMiwxMy41MDY4Wm0wLDEyLjUzNjdjLTIuNzU1OCwwLTQuNTE0MS0xLjExNDgtNC41MTQxLTEuODgyNFYyMi4wNTA2QTguNjE1LDguNjE1LDAsMCwwLDE4LjAyLDIzLjE1NjJhOC42MTY2LDguNjE2NiwwLDAsMCw0LjUxNDctMS4xMDU3djIuMTEwNkMyMi41MzQ3LDI0LjkyODcsMjAuNzc1OSwyNi4wNDM1LDE4LjAyLDI2LjA0MzVabTQuNTE0NywxNi41NDI0YzAsLjc2NzYtMS43NTg4LDEuODgyOS00LjUxNDcsMS44ODI5cy00LjUxNDEtMS4xMTUzLTQuNTE0MS0xLjg4MjlWNDAuNDc3NUE4LjYxNTEsOC42MTUxLDAsMCwwLDE4LjAyLDQxLjU4M2E4LjYxNzYsOC42MTc2LDAsMCwwLDQuNTE0Ny0xLjEwNTZaTTE4LjAyLDM2LjMxOTNjMi43OTc0LDAsNC41MTQ3LDEuMDk1Nyw0LjUxNDcsMS44ODE5UzIwLjgxNzQsNDAuMDgzLDE4LjAyLDQwLjA4M3MtNC41MTQxLTEuMDk1Ny00LjUxNDEtMS44ODE4UzE1LjIyMzEsMzYuMzE5MywxOC4wMiwzNi4zMTkzWm0wLDEyLjUzNjJjLTIuNzU1OCwwLTQuNTE0MS0xLjExNDMtNC41MTQxLTEuODgxOVY0NC44NjNBOC42MTMxLDguNjEzMSwwLDAsMCwxOC4wMiw0NS45Njg4YTguNjE1Niw4LjYxNTYsMCwwLDAsNC41MTQ3LTEuMTA1OXYyLjExMDdDMjIuNTM0Nyw0Ny43NDEyLDIwLjc3NTksNDguODU1NSwxOC4wMiw0OC44NTU1Wm0zMC44MzY0LTYuMjdjMCwuNzY3Ni0xLjc1ODcsMS44ODI5LTQuNTE0NiwxLjg4MjlzLTQuNTE0Ny0xLjExNTMtNC41MTQ3LTEuODgyOVY0MC40Nzc0YTguNjE3OCw4LjYxNzgsMCwwLDAsNC41MTQ3LDEuMTA1Niw4LjYxNzIsOC42MTcyLDAsMCwwLDQuNTE0Ni0xLjEwNTZabS00LjUxNDYsNi4yN2MtMi43NTU5LDAtNC41MTQ3LTEuMTE0My00LjUxNDctMS44ODE5VjQ0Ljg2MjlhOC42MTU5LDguNjE1OSwwLDAsMCw0LjUxNDcsMS4xMDU5LDguNjE1Miw4LjYxNTIsMCwwLDAsNC41MTQ2LTEuMTA1OXYyLjExMDdDNDguODU2NCw0Ny43NDEyLDQ3LjA5NzcsNDguODU1NSw0NC4zNDE4LDQ4Ljg1NTVabTAtMTIuNTM2MmMyLjc5NjksMCw0LjUxNDYsMS4wOTU3LDQuNTE0NiwxLjg4MTlzLTEuNzE3NywxLjg4MTgtNC41MTQ2LDEuODgxOC00LjUxNDctMS4wOTU3LTQuNTE0Ny0xLjg4MThTNDEuNTQ0OSwzNi4zMTkzLDQ0LjM0MTgsMzYuMzE5M1ptNC41MTQ2LTE2LjU0NTRjMCwuNzY3Ni0xLjc1ODcsMS44ODIzLTQuNTE0NiwxLjg4MjNzLTQuNTE0Ny0xLjExNDctNC41MTQ3LTEuODgyM1YxNy42NjUzYTguNjE2OSw4LjYxNjksMCwwLDAsNC41MTQ3LDEuMTA1Nyw4LjYxNjIsOC42MTYyLDAsMCwwLDQuNTE0Ni0xLjEwNTdabS00LjUxNDYtNi4yNjcxYzIuNzk2OSwwLDQuNTE0NiwxLjA5NjIsNC41MTQ2LDEuODgyNHMtMS43MTc3LDEuODgxOC00LjUxNDYsMS44ODE4LTQuNTE0Ny0xLjA5NjItNC41MTQ3LTEuODgxOFM0MS41NDQ5LDEzLjUwNjgsNDQuMzQxOCwxMy41MDY4Wm0wLDEyLjUzNjdjLTIuNzU1OSwwLTQuNTE0Ny0xLjExNDgtNC41MTQ3LTEuODgyNFYyMi4wNTA1YTguNjE2OSw4LjYxNjksMCwwLDAsNC41MTQ3LDEuMTA1Nyw4LjYxNjIsOC42MTYyLDAsMCwwLDQuNTE0Ni0xLjEwNTd2Mi4xMTA2QzQ4Ljg1NjQsMjQuOTI4Nyw0Ny4wOTc3LDI2LjA0MzUsNDQuMzQxOCwyNi4wNDM1WiIgdHJhbnNmb3JtPSJ0cmFuc2xhdGUoLTEwLjU4OTggLTEwLjU4ODkpIi8+PC9nPjxnIGlkPSJFYmVuZV80IiBkYXRhLW5hbWU9IkViZW5lIDQiPjxyZWN0IGNsYXNzPSJjbHMtMSIgd2lkdGg9IjQxLjE4NDYiIGhlaWdodD0iNDEuMTg0NiIvPjwvZz48L3N2Zz4=" vertex="1" parent="1">
          <mxGeometry x="930.0000000000001" y="1599" width="62" height="62" as="geometry" />
        </mxCell>
        <mxCell id="XSCT2WYPgkQ0aujzjNFR-75" value="" style="shape=image;aspect=fixed;image=data:image/svg+xml,PHN2ZyB4bWxucz0iaHR0cDovL3d3dy53My5vcmcvMjAwMC9zdmciIHZpZXdCb3g9IjAgMCAyOS4zNDk5IDQxLjE4NDYiPjxkZWZzPjxzdHlsZT4uY2xzLTF7ZmlsbDpub25lO308L3N0eWxlPjwvZGVmcz48ZyBpZD0iRWJlbmVfMiIgZGF0YS1uYW1lPSJFYmVuZSAyIj48cGF0aCBkPSJNNDIuNDYxNiwyNi40MjU4SDM5LjA3MjlWMTguODQ4NmEyLjAzODMsMi4wMzgzLDAsMCwwLTIuMDM2MS0yLjAzNjFoLTUuMVYxMi43NTU5YS43NS43NSwwLDAsMC0xLjUsMHY0LjA1NjZIMjUuMTUyYTIuMDM4NywyLjAzODcsMCwwLDAtMi4wMzYxLDIuMDM2MXY3LjU3NzJIMTkuOTAxMWExLjk4LDEuOTgsMCwwLDAtMS45NzgxLDEuOTc3NVY0OC4zNzg5YTEuOTgsMS45OCwwLDAsMCwxLjk3ODEsMS45Nzc1aDIyLjU2YTEuOTc5MywxLjk3OTMsMCwwLDAsMS45Nzc2LTEuOTc3NVYyOC40MDMzQTEuOTgsMS45OCwwLDAsMCw0Mi40NjE2LDI2LjQyNThaTTI0LjYxNTksMTguODQ4NmEuNTM3LjUzNywwLDAsMSwuNTM2MS0uNTM2MUgzNy4wMzY4YS41MzY3LjUzNjcsMCwwLDEsLjUzNjEuNTM2MXY3LjU3NzJIMjQuNjE1OVptMTguMzIzMywyOS41M2EuNDc3Ni40Nzc2LDAsMCwxLS40Nzc2LjQ3NzVoLTIyLjU2YS40NzguNDc4LDAsMCwxLS40NzgxLS40Nzc1VjI4LjQwMzNhLjQ3ODQuNDc4NCwwLDAsMSwuNDc4MS0uNDc3NWgyMi41NmEuNDc3OS40Nzc5LDAsMCwxLC40Nzc2LjQ3NzVaIiB0cmFuc2Zvcm09InRyYW5zbGF0ZSgtMTYuNTA2MSAtMTAuNTg4OSkiLz48cGF0aCBkPSJNMzMuMDkyNSwzMS4yMzI0aC0zLjk5YS43NS43NSwwLDAsMCwwLDEuNWgzLjk5YS43NS43NSwwLDAsMCwwLTEuNVoiIHRyYW5zZm9ybT0idHJhbnNsYXRlKC0xNi41MDYxIC0xMC41ODg5KSIvPjxwYXRoIGQ9Ik0yMS44Nzc2LDMyLjczMjRoMy45NzY2YS43NS43NSwwLDAsMCwwLTEuNUgyMS44Nzc2YS43NS43NSwwLDAsMCwwLDEuNVoiIHRyYW5zZm9ybT0idHJhbnNsYXRlKC0xNi41MDYxIC0xMC41ODg5KSIvPjxwYXRoIGQ9Ik0zMy4wOTI1LDM2LjAzOTFIMjkuMDc4OGEuNzUuNzUsMCwxLDAsMCwxLjVoNC4wMTM3YS43NS43NSwwLDAsMCwwLTEuNVoiIHRyYW5zZm9ybT0idHJhbnNsYXRlKC0xNi41MDYxIC0xMC41ODg5KSIvPjxwYXRoIGQ9Ik0yMS44Nzc2LDM3LjUzOTFoNC4wMTEzYS43NS43NSwwLDAsMCwwLTEuNUgyMS44Nzc2YS43NS43NSwwLDAsMCwwLDEuNVoiIHRyYW5zZm9ybT0idHJhbnNsYXRlKC0xNi41MDYxIC0xMC41ODg5KSIvPjxwYXRoIGQ9Ik0zMy4wOTI1LDQwLjg0NTdIMjkuMDEwOWEuNzUuNzUsMCwwLDAsMCwxLjVoNC4wODE2YS43NS43NSwwLDAsMCwwLTEuNVoiIHRyYW5zZm9ybT0idHJhbnNsYXRlKC0xNi41MDYxIC0xMC41ODg5KSIvPjxwYXRoIGQ9Ik00MC4zNTEzLDMxLjIzMjRoLTMuOTlhLjc1Ljc1LDAsMCwwLDAsMS41aDMuOTlhLjc1Ljc1LDAsMCwwLDAtMS41WiIgdHJhbnNmb3JtPSJ0cmFuc2xhdGUoLTE2LjUwNjEgLTEwLjU4ODkpIi8+PHBhdGggZD0iTTQwLjM1MTMsMzYuMDM5MUgzNi4zMzc2YS43NS43NSwwLDAsMCwwLDEuNWg0LjAxMzdhLjc1Ljc1LDAsMCwwLDAtMS41WiIgdHJhbnNmb3JtPSJ0cmFuc2xhdGUoLTE2LjUwNjEgLTEwLjU4ODkpIi8+PHBhdGggZD0iTTQwLjM1MTMsNDAuODQ1N0gzNi4yNjkyYS43NS43NSwwLDAsMCwwLDEuNWg0LjA4MjFhLjc1Ljc1LDAsMCwwLDAtMS41WiIgdHJhbnNmb3JtPSJ0cmFuc2xhdGUoLTE2LjUwNjEgLTEwLjU4ODkpIi8+PHBhdGggZD0iTTI1LjkxMTgsNDAuODQ1N0gyMS44Nzc2YS43NS43NSwwLDAsMCwwLDEuNWg0LjAzNDJhLjc1Ljc1LDAsMCwwLDAtMS41WiIgdHJhbnNmb3JtPSJ0cmFuc2xhdGUoLTE2LjUwNjEgLTEwLjU4ODkpIi8+PHBhdGggZD0iTTMzLjE3LDIxLjU5MjhIMjkuMTkzMWEuNzUuNzUsMCwwLDAsMCwxLjVIMzMuMTdhLjc1Ljc1LDAsMCwwLDAtMS41WiIgdHJhbnNmb3JtPSJ0cmFuc2xhdGUoLTE2LjUwNjEgLTEwLjU4ODkpIi8+PC9nPjxnIGlkPSJFYmVuZV80IiBkYXRhLW5hbWU9IkViZW5lIDQiPjxyZWN0IGNsYXNzPSJjbHMtMSIgd2lkdGg9IjI5LjM0OTkiIGhlaWdodD0iNDEuMTg0NiIvPjwvZz48L3N2Zz4=;" vertex="1" parent="1">
          <mxGeometry x="539.9999999999999" y="910" width="44.22" height="62" as="geometry" />
        </mxCell>
        <mxCell id="XSCT2WYPgkQ0aujzjNFR-80" value="" style="endArrow=block;html=1;strokeWidth=3;endFill=0;fontSize=20;fontColor=#E42313;targetPerimeterSpacing=10;sourcePerimeterSpacing=10;strokeColor=#7C7C7B;dashed=1;rounded=0;fontFamily=Roboto;fontSource=https%3A%2F%2Ffonts.googleapis.com%2Fcss%3Ffamily%3DRoboto;" edge="1" parent="1" source="XSCT2WYPgkQ0aujzjNFR-69" target="XSCT2WYPgkQ0aujzjNFR-77">
          <mxGeometry width="50" height="50" relative="1" as="geometry">
            <mxPoint x="820" y="1062" as="sourcePoint" />
            <mxPoint x="820" y="1220" as="targetPoint" />
            <Array as="points" />
          </mxGeometry>
        </mxCell>
        <mxCell id="XSCT2WYPgkQ0aujzjNFR-77" value="" style="shape=image;verticalLabelPosition=bottom;verticalAlign=top;imageAspect=0;aspect=fixed;image=data:image/svg+xml,PHN2ZyB4bWxucz0iaHR0cDovL3d3dy53My5vcmcvMjAwMC9zdmciIHZpZXdCb3g9IjAgMCA0MC41ODkyOTgyNDgyOTEwMTYgNDAuNTg5Mjk4MjQ4MjkxMDE2IiB2ZXJzaW9uPSIxLjEiIGlkPSJFYmVuZV8xIiB3aWR0aD0iNDAuNTg5Mjk4MjQ4MjkxMDE2IiBoZWlnaHQ9IjQwLjU4OTI5ODI0ODI5MTAxNiI+JiN4YTsgICYjeGE7ICA8ZGVmcz4mI3hhOyAgICA8c3R5bGU+JiN4YTsgICAgICAuc3QwIHsmI3hhOyAgICAgICAgZmlsbDogbm9uZTsmI3hhOyAgICAgIH0mI3hhOyAgICA8L3N0eWxlPiYjeGE7ICA8L2RlZnM+JiN4YTsgIDxnIGlkPSJFYmVuZV8zIj4mI3hhOyAgICA8cmVjdCBoZWlnaHQ9IjQwLjU4OTMiIHdpZHRoPSI0MC41ODkzIiB5PSIwIiBjbGFzcz0ic3QwIi8+JiN4YTsgIDwvZz4mI3hhOyAgPGcgaWQ9InBmZWlsZSI+JiN4YTsgICAgPHBhdGggZD0iTTE5Ljk3NTYsMi4zNTZDMTAuMDg0NSwyLjM1NiwyLjAzNzEsMTAuNDAzNCwyLjAzNzEsMjAuMjk1czguMDQ3NCwxNy45MzksMTcuOTM4NSwxNy45MzksMTcuOTM5NS04LjA0NzksMTcuOTM5NS0xNy45MzlTMjkuODY3MiwyLjM1NiwxOS45NzU2LDIuMzU2Wk0xOS45NzU2LDM2LjQ4NGMtOC45MjYzLDAtMTYuMTg4NS03LjI2MjctMTYuMTg4NS0xNi4xODlTMTEuMDQ5Myw0LjEwNiwxOS45NzU2LDQuMTA2czE2LjE4ODUsNy4yNjIyLDE2LjE4ODUsMTYuMTg5LTcuMjYxNywxNi4xODktMTYuMTg4NSwxNi4xODlaIi8+JiN4YTsgICAgPHBhdGggZD0iTTE5Ljk3NTYsMi4zNTZDMTAuMDg0NSwyLjM1NiwyLjAzNzEsMTAuNDAzNCwyLjAzNzEsMjAuMjk1czguMDQ3NCwxNy45MzksMTcuOTM4NSwxNy45MzksMTcuOTM5NS04LjA0NzksMTcuOTM5NS0xNy45MzlTMjkuODY3MiwyLjM1NiwxOS45NzU2LDIuMzU2Wk0xOS45NzU2LDM2LjQ4NGMtOC45MjYzLDAtMTYuMTg4NS03LjI2MjctMTYuMTg4NS0xNi4xODlTMTEuMDQ5Myw0LjEwNiwxOS45NzU2LDQuMTA2czE2LjE4ODUsNy4yNjIyLDE2LjE4ODUsMTYuMTg5LTcuMjYxNywxNi4xODktMTYuMTg4NSwxNi4xODlaIi8+JiN4YTsgICAgPHBhdGggZD0iTTIzLjM0NzQsMjIuNjEyM2w0LjQ1MDgsNC40NTA5LjQzMDcuNDMwNy0uMDAzOS0uNjA5MS0uMDI2MS00LjA1MzEsMS40NjU5LDEuNDU4NS0uMDA5NCw1LjY3NzEtNS42ODY4LjAxODgtMS40NTgzLTEuNDY1OCw0LjA1MzEuMDI2MS42MDkxLjAwMzktLjQzMDctLjQzMDctNC40NTA5LTQuNDUwOCwxLjA1NjUtMS4wNTY1Ii8+JiN4YTsgICAgPHBhdGggZD0iTTE1Ljk4MjksMTAuNjAzM2wxLjQ1ODMsMS40NjU4LTQuMDUzMS0uMDI2MS0uNjA5MS0uMDAzOS40MzA3LjQzMDcsNC40NTg4LDQuNDU4OC0xLjA1NjQsMS4wNTY0LTQuNDU4OC00LjQ1ODgtLjQzMDctLjQzMDcuMDAzOS42MDkxLjAyNjEsNC4wNTMxLTEuNDY1OS0xLjQ1ODUuMDA5NC01LjY3NzEsNS42ODY4LS4wMTg4Ii8+JiN4YTsgICAgPHBhdGggZD0iTTI4LjQ3NDksMTAuNzI2OWwxLjA2NjEsMS4wNjYxLTQuNDYyNCw0LjQ1MjktLjQzMDUuNDI5Ni42MDgyLS4wMDI2LDQuMDUwNC0uMDE3NC0xLjQ2NDYsMS40NTcyLTUuNjc3OC0uMDA5NC0uMDE4OC01LjY3NzIsMS40NjctMS40NjctLjAxNzQsNC4wNTI4LS4wMDI2LjYwODEuNDI5Ni0uNDMwNSw0LjQ1My00LjQ2MjUiLz4mI3hhOyAgICA8cGF0aCBkPSJNMTIuMTA5NywyMi40NjY4bDUuNjY3Ni4wMTg4LjAxODgsNS42Nzc2LTEuNDY1NywxLjQ2NTcuMDI2MS00LjA1MDkuMDAzOS0uNjA5MS0uNDMwNy40MzA3LTQuNDUzNCw0LjQ1MzUtMS4wNTc2LTEuMDY1MSw0LjQ1NDQtNC40NDQ2LjQzMDUtLjQyOTYtLjYwODIuMDAyNi00LjA1MjguMDE3NCwxLjQ2Ny0xLjQ2NyIvPiYjeGE7ICA8L2c+JiN4YTs8L3N2Zz4=" vertex="1" parent="1">
          <mxGeometry x="789" y="1052" width="62" height="62" as="geometry" />
        </mxCell>
        <mxCell id="XSCT2WYPgkQ0aujzjNFR-81" value="" style="shape=image;verticalLabelPosition=bottom;verticalAlign=top;imageAspect=0;aspect=fixed;image=data:image/svg+xml,PHN2ZyB4bWxucz0iaHR0cDovL3d3dy53My5vcmcvMjAwMC9zdmciIHZpZXdCb3g9IjAgMCAzNy4wOTcwMDAxMjIwNzAzMSAxMi44ODA1OTk5NzU1ODU5MzgiIHdpZHRoPSIzNy4wOTcwMDAxMjIwNzAzMSIgaGVpZ2h0PSIxMi44ODA1OTk5NzU1ODU5MzgiPjxkZWZzPjxzdHlsZT4uY2xzLTF7ZmlsbDpub25lO308L3N0eWxlPjwvZGVmcz48ZyBpZD0iRWJlbmVfMiIgZGF0YS1uYW1lPSJFYmVuZSAyIj48cGF0aCBkPSJNNDQuNjY4OSwzNi4yMDUxSDE3LjYwNGEzLjYwMzksMy42MDM5LDAsMCwxLTMuNTk5MS0zLjZWMjkuNzU2OGEzLjYwMzQsMy42MDM0LDAsMCwxLDMuNTk5MS0zLjU5OTFINDQuNjY4OWEzLjYwMzksMy42MDM5LDAsMCwxLDMuNiwzLjU5OTF2Mi44NDg3QTMuNjA0NCwzLjYwNDQsMCwwLDEsNDQuNjY4OSwzNi4yMDUxWk0xNy42MDQsMjcuNjU3N2EyLjEwMTgsMi4xMDE4LDAsMCwwLTIuMDk5MSwyLjA5OTF2Mi44NDg3YTIuMTAxNiwyLjEwMTYsMCwwLDAsMi4wOTkxLDIuMUg0NC42Njg5YTIuMTAxNSwyLjEwMTUsMCwwLDAsMi4xLTIuMVYyOS43NTY4YTIuMTAxNywyLjEwMTcsMCwwLDAtMi4xLTIuMDk5MVoiIHRyYW5zZm9ybT0idHJhbnNsYXRlKC0xMi41ODgyIC0yNC43NDExKSIvPjxwYXRoIGQ9Ik0yMC44MDkxLDMyLjI4NzFhMS4xMDYsMS4xMDYsMCwxLDEsMS4xMDU5LTEuMTA1OUExLjEwNzYsMS4xMDc2LDAsMCwxLDIwLjgwOTEsMzIuMjg3MVoiIHRyYW5zZm9ybT0idHJhbnNsYXRlKC0xMi41ODgyIC0yNC43NDExKSIvPjxwYXRoIGQ9Ik0yNS43OTQ5LDMyLjI4NzFhMS4xMDYsMS4xMDYsMCwxLDEsMS4xMDYtMS4xMDU5QTEuMTA3NiwxLjEwNzYsMCwwLDEsMjUuNzk0OSwzMi4yODcxWiIgdHJhbnNmb3JtPSJ0cmFuc2xhdGUoLTEyLjU4ODIgLTI0Ljc0MTEpIi8+PC9nPjxnIGlkPSJFYmVuZV80IiBkYXRhLW5hbWU9IkViZW5lIDQiPjxyZWN0IGNsYXNzPSJjbHMtMSIgd2lkdGg9IjM3LjA5NyIgaGVpZ2h0PSIxMi44ODA2Ii8+PC9nPjwvc3ZnPg==" vertex="1" parent="1">
          <mxGeometry x="940" y="1269.11" width="62" height="21.78" as="geometry" />
        </mxCell>
        <mxCell id="XSCT2WYPgkQ0aujzjNFR-83" value="Office&amp;nbsp;&lt;div&gt;Vienna&lt;/div&gt;" style="text;strokeColor=none;align=center;fillColor=none;html=1;verticalAlign=middle;whiteSpace=wrap;rounded=0;fontFamily=Roboto;fontSource=https%3A%2F%2Ffonts.googleapis.com%2Fcss%3Ffamily%3DRoboto;fontSize=16;fontStyle=1" vertex="1" parent="1">
          <mxGeometry x="519.22" y="972" width="85.78" height="44" as="geometry" />
        </mxCell>
        <mxCell id="XSCT2WYPgkQ0aujzjNFR-84" value="User" style="text;strokeColor=none;align=center;fillColor=none;html=1;verticalAlign=middle;whiteSpace=wrap;rounded=0;fontFamily=Roboto;fontSource=https%3A%2F%2Ffonts.googleapis.com%2Fcss%3Ffamily%3DRoboto;fontSize=16;fontStyle=1" vertex="1" parent="1">
          <mxGeometry x="854" y="972" width="70" height="30" as="geometry" />
        </mxCell>
        <mxCell id="XSCT2WYPgkQ0aujzjNFR-85" value="Router" style="text;strokeColor=none;align=center;fillColor=none;html=1;verticalAlign=middle;whiteSpace=wrap;rounded=0;fontFamily=Roboto;fontSource=https%3A%2F%2Ffonts.googleapis.com%2Fcss%3Ffamily%3DRoboto;fontSize=16;fontStyle=1" vertex="1" parent="1">
          <mxGeometry x="854" y="1068" width="70" height="30" as="geometry" />
        </mxCell>
      </root>
    </mxGraphModel>
  </diagram>
</mxfile>
